<svg width="18" height="14" viewBox="0 0 18 14" fill="none" xmlns="http://www.w3.org/2000/svg">
<path opacity="0.3" d="M2.33301 0.333008C1.41201 0.333008 0.666992 1.079 0.666992 2V12C0.666992 12.921 1.41201 13.667 2.33301 13.667H15.667C16.587 13.667 17.333 12.921 17.333 12V2C17.333 1.079 16.587 0.333008 15.667 0.333008H2.33301ZM2.90601 5.33301H3.93799L5.25 8.50101V5.33301H6.56201L7.49899 7.58301L8.43701 5.33301H9.65601V8.66699H8.90601V6.25L7.875 8.66699H7.125L6.095 6.16699V8.66699H4.5L4.22 7.91599H2.625L2.345 8.66699H1.5L2.90601 5.33301ZM10.688 5.33301H13.78L14.531 6.33301L15.468 5.33301H16.5L15.094 7L16.5 8.66699H15.562L14.625 7.58301L13.687 8.66699H10.688V5.33301ZM3.375 6.00101L2.90601 7.16599H3.84399L3.375 6.00101ZM11.438 6.08401V6.66599H13.124V7.33401H11.438V7.99899H13.219L14.062 7L13.313 6.08401H11.438Z" fill="white"/>
</svg>
