<svg width="29" height="29" viewBox="0 0 29 29" fill="none" xmlns="http://www.w3.org/2000/svg">
<path d="M27.1875 21.1458C27.1875 22.4804 26.1054 23.5625 24.7708 23.5625H4.22917C2.89456 23.5625 1.8125 22.4804 1.8125 21.1458V7.85417C1.8125 6.51956 2.89456 5.4375 4.22917 5.4375H24.7708C26.1054 5.4375 27.1875 6.51956 27.1875 7.85417V21.1458Z" fill="#1976D2"/>
<path d="M13.4457 12.0833L12.1691 14.9126L10.8986 12.0833H9.27032V16.1469L7.45601 12.0833H6.08214L4.22916 16.3009H5.32572L5.73111 15.3596H7.80462L8.21666 16.3009H10.3101V13.1683L11.6991 16.3009H12.6434L14.0638 13.2227V16.3009H15.1042V12.0833H13.4457ZM6.12322 14.4486L6.74309 12.9744L7.38714 14.4486H6.12322ZM22.8876 14.1453L24.7708 12.0941H23.4314L22.2267 13.4015L21.0612 12.0833H16.9167V16.3015H20.9253L22.1892 14.9053L23.4217 16.3124H24.7569L22.8876 14.1453ZM20.3773 15.4158H17.954V14.5815H20.2728V13.7822H17.954V12.9919L20.5121 12.9992L21.5349 14.1453L20.3773 15.4158Z" fill="white"/>
</svg>
