<svg width="51" height="21" viewBox="0 0 51 21" fill="none" xmlns="http://www.w3.org/2000/svg">
<path d="M10.9843 0.00195312C10.1493 0.0419531 9.11819 0.573313 8.52919 1.32031C7.98919 1.96431 7.52742 3.01019 7.64442 3.99219C8.58742 4.07419 9.53003 3.50044 10.119 2.77344C10.699 2.02644 11.0823 1.02495 10.9843 0.00195312ZM18.9999 2V17H21.3749V12H24.6249C27.6079 12 29.7499 9.925 29.7499 7C29.7499 4.075 27.647 2 24.703 2H18.9999ZM21.3749 4H24.1249C26.1719 4 27.3749 5.105 27.3749 7C27.3749 8.895 26.1819 10 24.1249 10H21.3749V4ZM10.8749 4.5C9.49989 4.5 8.51689 5.25 7.87489 5.25C7.22289 5.25 6.24989 4.50977 5.12489 4.50977C3.74989 4.50977 2.40325 5.37286 1.69325 6.63086C0.234253 9.14586 1.3145 12.869 2.7245 14.916C3.4155 15.93 4.24989 17 5.37489 17C6.40589 16.961 6.75489 16.375 7.99989 16.375C9.25389 16.375 9.62489 17 10.7499 17C11.8749 17 12.556 15.9691 13.246 14.9551C14.034 13.8051 14.3559 12.684 14.3749 12.625C14.3559 12.606 12.1976 11.7773 12.1776 9.28125C12.1586 7.19525 13.8789 6.20058 13.9569 6.14258C12.9839 4.70058 11.3749 4.5 10.9999 4.5H10.8749ZM35.1991 6C32.7101 6 30.8706 7.39545 30.8026 9.31445H32.912C33.086 8.40245 33.9488 7.80469 35.1308 7.80469C36.5638 7.80469 37.3729 8.46097 37.3729 9.66797L37.3749 10.5L34.4433 10.6543C31.7223 10.8153 30.2499 11.9086 30.2499 13.8086C30.2499 15.7276 31.7701 17.002 33.9491 17.002C35.4211 17.002 36.7871 16.2703 37.4061 15.1113H37.455V16.8867H39.6229V9.51562C39.6239 7.37663 37.8821 6 35.1991 6ZM40.4999 6L44.5077 16.9492L44.2929 17.6152C43.9309 18.7442 43.3447 19.1777 42.2987 19.1777C42.1197 19.1777 41.7809 19.1596 41.6249 19.1406V20.9453C41.7829 20.9803 42.3328 21 42.5038 21C44.8108 21 45.8966 20.132 46.8456 17.498L50.9999 6H48.5956L45.8085 14.8848H45.7597L42.9725 6H40.4999ZM37.3749 12L37.3671 12.8672C37.3671 14.2542 36.166 15.2422 34.578 15.2422C33.329 15.2422 32.535 14.654 32.535 13.752C32.535 12.821 33.3006 12.2794 34.7636 12.1934L37.3749 12Z" fill="black"/>
</svg>
