<svg width="16" height="16" viewBox="0 0 16 16" fill="none" xmlns="http://www.w3.org/2000/svg">
<path d="M0.666504 3.33325H15.3332V12.6666H0.666504V3.33325Z" fill="#283593"/>
<path d="M4.33317 9.33325L4.53084 9.96392L5.13484 9.72925L4.7775 10.2813L5.33317 10.6196L4.6895 10.6769L4.77817 11.3333L4.33317 10.8529L3.88817 11.3333L3.97684 10.6769L3.33317 10.6196L3.88884 10.2816L3.5315 9.72959L4.1355 9.96425L4.33317 9.33325ZM11.4998 10.3333L11.5988 10.6486L11.9008 10.5313L11.7222 10.8073L11.9998 10.9763L11.6782 11.0049L11.7225 11.3333L11.4998 11.0933L11.2772 11.3333L11.3215 11.0049L10.9998 10.9763L11.2775 10.8073L11.0988 10.5313L11.4008 10.6486L11.4998 10.3333ZM9.8215 7.32825L9.9205 7.64359L10.2225 7.52625L10.0438 7.80225L10.3215 7.97125L9.99984 7.99992L10.0442 8.32825L9.8215 8.08825L9.59884 8.32825L9.6435 7.99992L9.32184 7.97125L9.5995 7.80225L9.42084 7.52625L9.72284 7.64359L9.8215 7.32825ZM11.4998 5.33325L11.5988 5.64859L11.9008 5.53125L11.7222 5.80725L11.9998 5.97625L11.6782 6.00492L11.7225 6.33325L11.4998 6.09325L11.2772 6.33325L11.3215 6.00492L10.9998 5.97625L11.2775 5.80725L11.0988 5.53125L11.4008 5.64859L11.4998 5.33325ZM13.4998 6.99992L13.5988 7.31525L13.9008 7.19792L13.7222 7.47392L13.9998 7.64292L13.6782 7.67159L13.7225 7.99992L13.4998 7.75992L13.2772 7.99992L13.3215 7.67159L12.9998 7.64292L13.2775 7.47392L13.0988 7.19792L13.4008 7.31525L13.4998 6.99992ZM12.3332 8.33325L12.4248 8.56925L12.6665 8.58792L12.4812 8.75225L12.5392 8.99992L12.3332 8.86559L12.1272 8.99992L12.1852 8.75225L11.9998 8.58792L12.2415 8.56925L12.3332 8.33325ZM0.666504 3.98559L3.8195 5.95459L4.29384 5.16159L1.3645 3.33325H0.666504V3.98559ZM7.99984 3.33325H7.45284L4.5245 5.16125L4.9985 5.95425L7.99984 4.07992V3.33325ZM4.9985 5.25625L4.5245 6.04792L7.65017 7.99992H7.99984V7.13025L4.9985 5.25625ZM0.666504 7.22525V7.99992H1.16817L4.29384 6.04825L3.8195 5.25659L0.666504 7.22525ZM7.99984 4.99992H0.666504V6.33325H7.99984V4.99992ZM3.6665 3.33325V7.99992H4.99984V3.33325H3.6665Z" fill="white"/>
<path d="M2.96584 6.33325H3.54717L0.877171 7.99992H0.666504V7.76825L2.96584 6.33325ZM3.1625 4.99992L0.666504 3.44125V3.80459L2.58184 4.99992H3.1625ZM5.8525 6.33325L7.99984 7.67359V7.31092L6.43317 6.33325H5.8525ZM7.74384 3.33325L5.0745 4.99992H5.65584L7.99984 3.53625V3.33325H7.74384ZM4.66617 3.33325H3.9995V5.33325H0.666504V5.99992H3.9995V7.99992H4.66617V5.99992H7.99984V5.33325H4.66617V3.33325Z" fill="#E53935"/>
</svg>
