<svg width="72" height="72" viewBox="0 0 72 72" fill="none" xmlns="http://www.w3.org/2000/svg">
<path d="M66 36C66 52.569 52.569 66 36 66C19.431 66 6 52.569 6 36C6 32.676 6.54 29.478 7.539 26.4885C9.4665 20.718 21.7335 16.5 21.7335 16.5C21.7335 16.5 21.7935 9.4605 23.994 8.499C27.6705 6.891 31.731 6 36 6C52.569 6 66 19.431 66 36Z" fill="#283593"/>
<path d="M19.5 42L20.391 44.8365L23.109 43.782L21.498 46.266L24 47.7885L21.105 48.0465L21.504 51L19.5 48.8385L17.496 51L17.895 48.0465L15 47.7885L17.502 46.266L15.891 43.782L18.609 44.8425L19.5 42Z" fill="white"/>
<path d="M51.75 46.5L52.1955 47.9175L53.5545 47.391L52.752 48.633L54 49.395L52.5525 49.524L52.752 51L51.75 49.9215L50.748 51L50.9475 49.524L49.5 49.395L50.748 48.633L49.9455 47.391L51.3045 47.9175L51.75 46.5Z" fill="white"/>
<path d="M44.1978 32.976L44.6433 34.395L46.0023 33.867L45.1998 35.109L46.4478 35.871L45.0003 36L45.1998 37.476L44.1978 36.399L43.1958 37.476L43.3953 36L41.9478 35.871L43.2018 35.109L42.3933 33.867L43.7523 34.395L44.1978 32.976Z" fill="white"/>
<path d="M51.75 24L52.1955 25.4175L53.5545 24.891L52.752 26.133L54 26.895L52.5525 27.024L52.752 28.5L51.75 27.4215L50.748 28.5L50.9475 27.024L49.5 26.895L50.748 26.133L49.9455 24.891L51.3045 25.4175L51.75 24Z" fill="white"/>
<path d="M60.75 31.5L61.1955 32.9175L62.5545 32.391L61.752 33.633L63 34.395L61.5525 34.524L61.752 36L60.75 34.9215L59.748 36L59.9475 34.524L58.5 34.395L59.748 33.633L58.9455 32.391L60.3045 32.9175L60.75 31.5Z" fill="white"/>
<path d="M55.5 37.5L55.9095 38.5605L57 38.649L56.1675 39.387L56.4255 40.5L55.5 39.897L54.5745 40.5L54.8325 39.387L54 38.649L55.0905 38.5605L55.5 37.5Z" fill="white"/>
<path d="M24 12.891V8.5125C21.852 9.4515 19.8495 10.6485 18 12.0405V12.465L17.691 12.273C13.0335 15.8715 9.46652 20.7975 7.56152 26.4975L18 19.98V27H24V19.5525L35.9235 27H37.5V23.0865L31.7565 19.5H37.5V13.5H30.8685L37.5 9.357V6.075C37.0005 6.051 36.507 6 36 6C35.6475 6 35.304 6.0405 34.9545 6.0525L24 12.891Z" fill="white"/>
<path d="M19.5 18V27H22.5V18H37.5V15H22.5V9.23547C21.4665 9.75747 20.46 10.323 19.5 10.9575V15H14.5935C13.674 15.9375 12.8325 16.9485 12.042 18H19.5Z" fill="#E53935"/>
<path d="M17.4617 19.5H14.8472L8.88923 23.2185C8.54573 23.9445 8.23373 24.684 7.94873 25.44L17.4617 19.5Z" fill="#E53935"/>
<path d="M36.3195 6.01648L24.3345 13.5H26.9535L37.5 6.91348V6.07498C37.107 6.05548 36.717 6.02098 36.3195 6.01648Z" fill="#E53935"/>
<path d="M37.4999 23.901L30.4514 19.5H27.8384L37.4999 25.53V23.901Z" fill="#E53935"/>
</svg>
