<svg width="74" height="74" viewBox="0 0 74 74" fill="none" xmlns="http://www.w3.org/2000/svg">
<path d="M55.5 12.3749C50.3431 8.49454 43.9514 6.16663 37 6.16663C30.0486 6.16663 23.6569 8.49454 18.5 12.3749V61.625C23.6569 65.5054 30.0486 67.8333 37 67.8333C43.9514 67.8333 50.3431 65.5054 55.5 61.625V12.3749Z" fill="#ECEFF1"/>
<path d="M67.8333 37C67.8333 26.9222 62.9771 18.0021 55.5 12.375V61.6251C62.9771 55.998 67.8333 47.0779 67.8333 37Z" fill="#FF3D00"/>
<path d="M6.1665 37C6.1665 47.0779 11.0228 55.998 18.4998 61.6251V12.375C11.0228 18.0021 6.1665 26.9222 6.1665 37Z" fill="#FF3D00"/>
<path d="M50.875 35.4583H46.25L46.1899 32.3997L42.624 34.1818L43.1667 26.2083L40.0833 27.75L37.0123 23.125L33.9167 27.75L30.8333 26.2083L31.376 34.1402L27.8101 32.3997C27.8101 32.3997 27.7438 35.4414 27.75 35.4583H23.125L26.2083 40.0833L23.125 41.625L29.2917 44.7083V47.7917C29.2917 47.7917 33.2013 47.5789 35.4583 47.4648V50.875H38.5417V47.4648C40.7987 47.5789 44.7083 47.7917 44.7083 47.7917V44.7083L50.875 41.625L47.7917 40.0833L50.875 35.4583Z" fill="#FF3D00"/>
</svg>
