<svg width="51" height="51" viewBox="0 0 51 51" fill="none" xmlns="http://www.w3.org/2000/svg">
<path d="M25.4998 0.300049C11.5831 0.300049 0.299805 11.5834 0.299805 25.5C0.299805 39.4168 11.5831 50.7001 25.4998 50.7001C39.4165 50.7001 50.6998 39.4168 50.6998 25.5C50.6998 11.5834 39.4165 0.300049 25.4998 0.300049ZM37.4845 26.9848L29.0845 35.3848C28.675 35.7943 28.1374 36 27.5998 36C27.0622 36 26.5246 35.7943 26.1151 35.3848C25.294 34.5637 25.294 33.2365 26.1151 32.4153L30.9304 27.6H14.9998C13.8406 27.6 12.8998 26.6614 12.8998 25.5C12.8998 24.3388 13.8406 23.4001 14.9998 23.4001H30.9304L26.1151 18.5847C25.294 17.7636 25.294 16.4365 26.1151 15.6154C26.9362 14.7943 28.2634 14.7943 29.0845 15.6154L37.4845 24.0154C38.3056 24.8365 38.3056 26.1637 37.4845 26.9848Z" fill="#CA323D"/>
</svg>
