<svg width="301" height="344" viewBox="0 0 301 344" fill="none" xmlns="http://www.w3.org/2000/svg">
<path d="M176.966 295.746L64.7989 265.691L53.0615 273.527C51.628 275.13 51.0429 277.313 51.4812 279.425L53.9015 291.055L173.688 323.151L181.599 314.29C183.033 312.687 183.62 310.497 183.18 308.392L176.966 295.746Z" fill="url(#paint0_linear)"/>
<path d="M167.018 307.222L67.6759 280.604C64.1331 279.654 62.0323 276.015 62.9816 272.473L65.6827 262.392L177.849 292.447L175.148 302.528C174.199 306.071 170.56 308.171 167.018 307.222Z" fill="url(#paint1_linear)"/>
<path d="M173.66 294.86L68.1041 266.576C65.386 265.848 64.6665 262.332 66.8794 260.592L85.6833 245.831C87.3757 244.503 89.5901 244.05 91.6682 244.607L164.238 264.052C166.316 264.609 168.007 266.108 168.809 268.105L177.714 290.289C178.76 292.903 176.379 295.588 173.66 294.86Z" fill="url(#paint2_linear)"/>
<path d="M177.112 326.31L174.384 328.337C172.805 329.243 170.924 329.482 169.163 329.01L54.8188 298.371C53.0375 297.894 51.5197 296.724 50.6039 295.128L49.2509 291.944C48.5966 290.163 48.2897 288.511 48.7546 286.776L51.5653 276.287L54.4458 282.135C55.3661 283.662 56.8501 284.774 58.5786 285.237L172.843 315.854C174.644 316.337 176.567 316.074 178.164 315.13L183.089 311.528L180.285 321.992C179.816 323.74 178.563 325.2 177.112 326.31Z" fill="url(#paint3_linear)"/>
<path d="M117.213 144.468L116.524 147.041C112.647 148.053 109.058 146.667 106.545 147.337C106.598 147.139 106.651 146.941 106.621 146.792C80.8051 135.469 94.5195 145.43 73.1527 122.756C62.9759 112.18 58.3289 90.995 58.9616 77.0227C59.1283 70.0671 60.5002 63.3638 62.5624 56.9869C63.0526 55.4212 63.6088 53.8732 64.231 52.3429C64.9545 50.6983 65.255 49.5768 66.5205 47.2289C68.8088 43.1752 72.9042 40.03 77.7981 38.6544C80.2451 37.9666 82.9336 37.6971 85.5466 37.973C88.0454 38.1475 91.1591 39.194 92.72 39.9658C95.3848 41.104 98.1155 42.26 101.233 44.0852C99.232 46.8017 96.0637 50.9731 94.0984 53.5577C92.1722 52.8295 89.8986 52.0789 87.6602 51.1963C86.1122 50.6401 85.8966 50.653 84.9377 50.5375C84.1589 50.5409 83.3802 50.5444 82.5967 50.8294C81.0651 51.2676 79.6737 52.2382 78.8713 53.6495C78.6156 54.076 77.9051 55.9361 77.4372 57.1543C76.8681 58.4867 76.4309 59.8544 75.9937 61.2222C74.1613 66.7415 72.0956 75.9812 72.0185 81.5466C71.7195 94.6962 74.2295 108.973 82.3624 117.941C90.2797 126.921 101.697 136.139 113.441 142.185L114.066 142.493C115.789 143.45 117.391 142.748 117.213 144.468Z" fill="url(#paint4_linear)"/>
<path d="M112.425 145.292C112.622 143.238 111.518 141.181 109.538 140.283C97.3748 134.747 86.4454 126.664 78.931 116.286C71.5514 105.774 68.5121 92.9175 69.7122 80.1791C70.2517 73.8113 71.5466 67.448 73.599 61.2664C74.6366 58.1857 75.6513 55.0848 76.9198 52.066C77.6629 50.2428 78.8883 48.9943 80.4563 48.2619C82.0102 47.5823 83.6685 47.4892 85.2337 48.0076C88.2482 49.2396 91.8949 50.4076 94.2179 51.4756C94.5341 51.5886 94.8085 51.7257 95.0499 51.854C93.7551 53.6779 91.5489 55.71 89.4888 57.7248L89.3642 57.847C88.4075 58.7785 88.0419 60.222 88.5414 61.5509C89.2203 63.345 91.2197 64.2484 93.012 63.5761C96.5201 62.2534 99.8483 60.8895 103.439 57.7292C104.313 56.8675 105.262 55.8065 106.047 54.1431C106.871 52.5466 107.214 49.7889 106.375 47.563C104.523 43.1779 102.103 42.0769 100.348 40.7369C96.5697 38.4235 93.6623 37.1353 90.2852 35.594C85.4012 33.4227 79.5104 33.5837 74.7588 35.8531C69.9545 38.0022 66.124 42.2437 64.2847 46.8914C62.9114 50.3276 61.5838 53.8044 60.6336 57.4034C58.6624 64.5755 57.4238 72.0216 57.2568 79.5852C56.8938 94.6621 61.3789 110.303 70.6354 122.308C78.8596 133.626 90.2235 141.592 101.988 147.877C101.788 149.365 101.465 150.834 100.909 152.247C100.436 153.485 99.7769 154.652 99.0277 155.76C98.3256 156.823 97.2375 157.981 96.5544 158.604L96.1069 159.007C94.9494 160.055 94.6367 161.802 95.4481 163.208C96.3784 164.829 98.4548 165.392 100.078 164.455C102.117 163.283 103.416 162.182 104.845 160.783C106.201 159.414 107.439 157.907 108.458 156.243C110.523 152.943 111.838 149.144 112.425 145.292Z" fill="#FEDD30"/>
<path d="M112.425 145.292C112.622 143.238 111.518 141.181 109.538 140.283C97.3748 134.747 86.4454 126.664 78.931 116.286C71.5514 105.774 68.5121 92.9175 69.7122 80.1791C70.2517 73.8113 71.5466 67.448 73.599 61.2664C74.6366 58.1857 75.6513 55.0848 76.9198 52.066C77.6629 50.2428 78.8883 48.9943 80.4563 48.2619C82.0102 47.5823 83.6685 47.4892 85.2337 48.0076C88.2482 49.2396 91.8949 50.4076 94.2179 51.4756C94.5341 51.5886 94.8085 51.7257 95.0499 51.854C93.7551 53.6779 91.5489 55.71 89.4888 57.7248L89.3642 57.847C88.4075 58.7785 88.0419 60.222 88.5414 61.5509C89.2203 63.345 91.2197 64.2484 93.012 63.5761C96.5201 62.2534 99.8483 60.8895 103.439 57.7292C104.313 56.8675 105.262 55.8065 106.047 54.1431C106.871 52.5466 107.214 49.7889 106.375 47.563C104.523 43.1779 102.103 42.0769 100.348 40.7369C96.5697 38.4235 93.6623 37.1353 90.2852 35.594C85.4012 33.4227 79.5104 33.5837 74.7588 35.8531C69.9545 38.0022 66.124 42.2437 64.2847 46.8914C62.9114 50.3276 61.5838 53.8044 60.6336 57.4034C58.6624 64.5755 57.4238 72.0216 57.2568 79.5852C56.8938 94.6621 61.3789 110.303 70.6354 122.308C78.8596 133.626 90.2235 141.592 101.988 147.877C101.788 149.365 101.465 150.834 100.909 152.247C100.436 153.485 99.7769 154.652 99.0277 155.76C98.3256 156.823 97.2375 157.981 96.5544 158.604L96.1069 159.007C94.9494 160.055 94.6367 161.802 95.4481 163.208C96.3784 164.829 98.4548 165.392 100.078 164.455C102.117 163.283 103.416 162.182 104.845 160.783C106.201 159.414 107.439 157.907 108.458 156.243C110.523 152.943 111.838 149.144 112.425 145.292Z" fill="url(#paint5_radial)"/>
<path d="M112.425 145.292C112.622 143.238 111.518 141.181 109.538 140.283C97.3748 134.747 86.4454 126.664 78.931 116.286C71.5514 105.774 68.5121 92.9175 69.7122 80.1791C70.2517 73.8113 71.5466 67.448 73.599 61.2664C74.6366 58.1857 75.6513 55.0848 76.9198 52.066C77.6629 50.2428 78.8883 48.9943 80.4563 48.2619C82.0102 47.5823 83.6685 47.4892 85.2337 48.0076C88.2482 49.2396 91.8949 50.4076 94.2179 51.4756C94.5341 51.5886 94.8085 51.7257 95.0499 51.854C93.7551 53.6779 91.5489 55.71 89.4888 57.7248L89.3642 57.847C88.4075 58.7785 88.0419 60.222 88.5414 61.5509C89.2203 63.345 91.2197 64.2484 93.012 63.5761C96.5201 62.2534 99.8483 60.8895 103.439 57.7292C104.313 56.8675 105.262 55.8065 106.047 54.1431C106.871 52.5466 107.214 49.7889 106.375 47.563C104.523 43.1779 102.103 42.0769 100.348 40.7369C96.5697 38.4235 93.6623 37.1353 90.2852 35.594C85.4012 33.4227 79.5104 33.5837 74.7588 35.8531C69.9545 38.0022 66.124 42.2437 64.2847 46.8914C62.9114 50.3276 61.5838 53.8044 60.6336 57.4034C58.6624 64.5755 57.4238 72.0216 57.2568 79.5852C56.8938 94.6621 61.3789 110.303 70.6354 122.308C78.8596 133.626 90.2235 141.592 101.988 147.877C101.788 149.365 101.465 150.834 100.909 152.247C100.436 153.485 99.7769 154.652 99.0277 155.76C98.3256 156.823 97.2375 157.981 96.5544 158.604L96.1069 159.007C94.9494 160.055 94.6367 161.802 95.4481 163.208C96.3784 164.829 98.4548 165.392 100.078 164.455C102.117 163.283 103.416 162.182 104.845 160.783C106.201 159.414 107.439 157.907 108.458 156.243C110.523 152.943 111.838 149.144 112.425 145.292Z" fill="url(#paint6_radial)"/>
<path opacity="0.4" d="M112.425 145.292C112.622 143.238 111.518 141.181 109.538 140.283C97.3748 134.747 86.4454 126.664 78.931 116.286C71.5514 105.774 68.5121 92.9175 69.7122 80.1791C70.2517 73.8113 71.5466 67.448 73.599 61.2664C74.6366 58.1857 75.6513 55.0848 76.9198 52.066C77.6629 50.2428 78.8883 48.9943 80.4563 48.2619C82.0102 47.5823 83.6685 47.4892 85.2337 48.0076C88.2482 49.2396 91.8949 50.4076 94.2179 51.4756C94.5341 51.5886 94.8085 51.7257 95.0499 51.854C93.7551 53.6779 91.5489 55.71 89.4888 57.7248L89.3642 57.847C88.4075 58.7785 88.0419 60.222 88.5414 61.5509C89.2203 63.345 91.2197 64.2484 93.012 63.5761C96.5201 62.2534 99.8483 60.8895 103.439 57.7292C104.313 56.8675 105.262 55.8065 106.047 54.1431C106.871 52.5466 107.214 49.7889 106.375 47.563C104.523 43.1779 102.103 42.0769 100.348 40.7369C96.5697 38.4235 93.6623 37.1353 90.2852 35.594C85.4012 33.4227 79.5104 33.5837 74.7588 35.8531C69.9545 38.0022 66.124 42.2437 64.2847 46.8914C62.9114 50.3276 61.5838 53.8044 60.6336 57.4034C58.6624 64.5755 57.4238 72.0216 57.2568 79.5852C56.8938 94.6621 61.3789 110.303 70.6354 122.308C78.8596 133.626 90.2235 141.592 101.988 147.877C101.788 149.365 101.465 150.834 100.909 152.247C100.436 153.485 99.7769 154.652 99.0277 155.76C98.3256 156.823 97.2375 157.981 96.5544 158.604L96.1069 159.007C94.9494 160.055 94.6367 161.802 95.4481 163.208C96.3784 164.829 98.4548 165.392 100.078 164.455C102.117 163.283 103.416 162.182 104.845 160.783C106.201 159.414 107.439 157.907 108.458 156.243C110.523 152.943 111.838 149.144 112.425 145.292Z" fill="url(#paint7_radial)"/>
<path d="M192.185 164.557L191.495 167.13C194.347 169.944 198.148 170.539 199.989 172.375C200.042 172.177 200.095 171.98 200.196 171.865C228.215 174.968 211.357 176.737 241.198 167.784C255.3 163.713 269.917 147.69 276.355 135.273C279.688 129.166 281.852 122.675 283.254 116.121C283.613 114.52 283.905 112.901 284.131 111.265C284.327 109.479 284.628 108.357 284.706 105.691C284.751 101.037 282.777 96.2652 279.226 92.6269C277.451 90.8077 275.257 89.23 272.856 88.1625C270.605 87.0643 267.385 86.4137 265.648 86.3016C262.771 85.955 259.828 85.5907 256.216 85.6128C256.59 88.9657 257.248 94.1624 257.658 97.3834C259.69 97.7158 262.035 98.2026 264.414 98.5574C266.033 98.8497 266.213 98.9687 267.102 99.3481C267.774 99.7405 268.447 100.133 268.983 100.771C270.09 101.917 270.81 103.453 270.799 105.076C270.807 105.574 270.493 107.54 270.289 108.829C270.115 110.267 269.81 111.67 269.505 113.073C268.332 118.769 263.899 130.96 261.183 135.818C255.769 145.469 247.157 155.309 235.63 159.009C224.284 162.827 209.787 165.101 196.593 164.465L195.898 164.42C193.927 164.387 192.891 162.978 192.185 164.557Z" fill="url(#paint8_linear)"/>
<path d="M193.884 179.14C193.934 181.091 194.253 183.015 194.744 184.878C195.281 186.804 195.856 188.408 197.036 190.442C197.975 192.058 200.046 192.614 201.669 191.677C203.074 190.865 203.677 189.195 203.199 187.71L203.013 187.137C202.726 186.254 202.369 184.709 202.293 183.437C202.191 182.101 202.204 180.761 202.42 179.454C202.639 177.95 203.1 176.518 203.67 175.13C217.008 175.571 230.826 174.352 243.608 168.662C257.628 162.888 269.331 151.592 276.555 138.353C280.184 131.724 282.843 124.651 284.721 117.455C285.691 113.861 286.287 110.188 286.816 106.525C287.548 101.574 286.35 95.9923 283.27 91.7307C280.283 87.3878 275.269 84.3047 269.954 83.7431C266.258 83.3894 263.096 83.0512 258.668 83.1656C256.478 83.4485 253.831 83.1919 250.035 86.0638C248.189 87.5702 247.106 90.1366 247.029 91.9262C246.877 93.7593 247.169 95.1526 247.495 96.336C249.022 100.875 251.224 103.713 253.601 106.613C254.815 108.098 257 108.309 258.485 107.094C259.582 106.193 259.988 104.76 259.625 103.475L259.567 103.297C258.788 100.529 257.895 97.6591 257.679 95.4305C257.953 95.44 258.265 95.4602 258.589 95.5187C261.135 95.7553 264.877 96.5671 268.104 97.0074C269.718 97.3411 271.108 98.2509 272.119 99.6247C273.109 101.05 273.547 102.737 273.279 104.687C272.864 107.928 272.19 111.127 271.555 114.316C270.237 120.687 268.181 126.853 265.465 132.638C260.133 144.276 251.066 153.889 239.428 159.298C227.731 164.528 214.217 166.062 200.922 164.777C198.759 164.565 196.775 165.794 195.92 167.665C194.502 171.294 193.741 175.241 193.884 179.14Z" fill="#FEDD30"/>
<path d="M193.884 179.14C193.934 181.091 194.253 183.015 194.744 184.878C195.281 186.804 195.856 188.408 197.036 190.442C197.975 192.058 200.046 192.614 201.669 191.677C203.074 190.865 203.677 189.195 203.199 187.71L203.013 187.137C202.726 186.254 202.369 184.709 202.293 183.437C202.191 182.101 202.204 180.761 202.42 179.454C202.639 177.95 203.1 176.518 203.67 175.13C217.008 175.571 230.826 174.352 243.608 168.662C257.628 162.888 269.331 151.592 276.555 138.353C280.184 131.724 282.843 124.651 284.721 117.455C285.691 113.861 286.287 110.188 286.816 106.525C287.548 101.574 286.35 95.9923 283.27 91.7307C280.283 87.3878 275.269 84.3047 269.954 83.7431C266.258 83.3894 263.096 83.0512 258.668 83.1656C256.478 83.4485 253.831 83.1919 250.035 86.0638C248.189 87.5702 247.106 90.1366 247.029 91.9262C246.877 93.7593 247.169 95.1526 247.495 96.336C249.022 100.875 251.224 103.713 253.601 106.613C254.815 108.098 257 108.309 258.485 107.094C259.582 106.193 259.988 104.76 259.625 103.475L259.567 103.297C258.788 100.529 257.895 97.6591 257.679 95.4305C257.953 95.44 258.265 95.4602 258.589 95.5187C261.135 95.7553 264.877 96.5671 268.104 97.0074C269.718 97.3411 271.108 98.2509 272.119 99.6247C273.109 101.05 273.547 102.737 273.279 104.687C272.864 107.928 272.19 111.127 271.555 114.316C270.237 120.687 268.181 126.853 265.465 132.638C260.133 144.276 251.066 153.889 239.428 159.298C227.731 164.528 214.217 166.062 200.922 164.777C198.759 164.565 196.775 165.794 195.92 167.665C194.502 171.294 193.741 175.241 193.884 179.14Z" fill="url(#paint9_radial)"/>
<path d="M193.884 179.14C193.934 181.091 194.253 183.015 194.744 184.878C195.281 186.804 195.856 188.408 197.036 190.442C197.975 192.058 200.046 192.614 201.669 191.677C203.074 190.865 203.677 189.195 203.199 187.71L203.013 187.137C202.726 186.254 202.369 184.709 202.293 183.437C202.191 182.101 202.204 180.761 202.42 179.454C202.639 177.95 203.1 176.518 203.67 175.13C217.008 175.571 230.826 174.352 243.608 168.662C257.628 162.888 269.331 151.592 276.555 138.353C280.184 131.724 282.843 124.651 284.721 117.455C285.691 113.861 286.287 110.188 286.816 106.525C287.548 101.574 286.35 95.9923 283.27 91.7307C280.283 87.3878 275.269 84.3047 269.954 83.7431C266.258 83.3894 263.096 83.0512 258.668 83.1656C256.478 83.4485 253.831 83.1919 250.035 86.0638C248.189 87.5702 247.106 90.1366 247.029 91.9262C246.877 93.7593 247.169 95.1526 247.495 96.336C249.022 100.875 251.224 103.713 253.601 106.613C254.815 108.098 257 108.309 258.485 107.094C259.582 106.193 259.988 104.76 259.625 103.475L259.567 103.297C258.788 100.529 257.895 97.6591 257.679 95.4305C257.953 95.44 258.265 95.4602 258.589 95.5187C261.135 95.7553 264.877 96.5671 268.104 97.0074C269.718 97.3411 271.108 98.2509 272.119 99.6247C273.109 101.05 273.547 102.737 273.279 104.687C272.864 107.928 272.19 111.127 271.555 114.316C270.237 120.687 268.181 126.853 265.465 132.638C260.133 144.276 251.066 153.889 239.428 159.298C227.731 164.528 214.217 166.062 200.922 164.777C198.759 164.565 196.775 165.794 195.92 167.665C194.502 171.294 193.741 175.241 193.884 179.14Z" fill="url(#paint10_radial)"/>
<path opacity="0.4" d="M193.884 179.14C193.934 181.091 194.253 183.015 194.744 184.878C195.281 186.804 195.856 188.408 197.036 190.442C197.975 192.058 200.046 192.614 201.669 191.677C203.074 190.865 203.677 189.195 203.199 187.71L203.013 187.137C202.726 186.254 202.369 184.709 202.293 183.437C202.191 182.101 202.204 180.761 202.42 179.454C202.639 177.95 203.1 176.518 203.67 175.13C217.008 175.571 230.826 174.352 243.608 168.662C257.628 162.888 269.331 151.592 276.555 138.353C280.184 131.724 282.843 124.651 284.721 117.455C285.691 113.861 286.287 110.188 286.816 106.525C287.548 101.574 286.35 95.9923 283.27 91.7307C280.283 87.3878 275.269 84.3047 269.954 83.7431C266.258 83.3894 263.096 83.0512 258.668 83.1656C256.478 83.4485 253.831 83.1919 250.035 86.0638C248.189 87.5702 247.106 90.1366 247.029 91.9262C246.877 93.7593 247.169 95.1526 247.495 96.336C249.022 100.875 251.224 103.713 253.601 106.613C254.815 108.098 257 108.309 258.485 107.094C259.582 106.193 259.988 104.76 259.625 103.475L259.567 103.297C258.788 100.529 257.895 97.6591 257.679 95.4305C257.953 95.44 258.265 95.4602 258.589 95.5187C261.135 95.7553 264.877 96.5671 268.104 97.0074C269.718 97.3411 271.108 98.2509 272.119 99.6247C273.109 101.05 273.547 102.737 273.279 104.687C272.864 107.928 272.19 111.127 271.555 114.316C270.237 120.687 268.181 126.853 265.465 132.638C260.133 144.276 251.066 153.889 239.428 159.298C227.731 164.528 214.217 166.062 200.922 164.777C198.759 164.565 196.775 165.794 195.92 167.665C194.502 171.294 193.741 175.241 193.884 179.14Z" fill="url(#paint11_radial)"/>
<path d="M155.29 205.086L128.9 198.016L116.526 244.196L142.915 251.267L155.29 205.086Z" fill="url(#paint12_radial)"/>
<path d="M144.683 244.67L118.294 237.599L118.284 237.582C115.896 230.529 121.52 209.543 127.114 204.629L127.133 204.613L153.522 211.684L153.532 211.701C155.92 218.754 150.296 239.74 144.702 244.654L144.683 244.67Z" fill="url(#paint13_radial)"/>
<path d="M148.779 255.773L128.987 250.47L109.195 245.167C109.195 245.167 90.7143 249.011 85.3414 255.024C85.3414 255.024 84.2984 258.916 84.1005 259.655C82.3327 266.252 115.319 275.091 121.916 276.859C128.514 278.627 161.5 287.465 163.268 280.868C163.464 280.136 164.509 276.237 164.509 276.237C162.908 268.355 148.779 255.773 148.779 255.773Z" fill="url(#paint14_linear)"/>
<path d="M164.514 276.217C163.294 280.769 143.796 276.746 131.718 273.793C127.94 272.851 124.905 272.038 123.322 271.614C119.495 270.589 106.697 267.159 96.9869 263.285C90.0257 260.5 84.675 257.511 85.3467 255.004C86.9377 249.067 110.325 242.535 110.325 242.535L149.117 252.929C149.117 252.929 166.105 270.279 164.514 276.217Z" fill="url(#paint15_radial)"/>
<path opacity="0.7" d="M164.514 276.217C163.294 280.769 143.796 276.746 131.718 273.793C127.94 272.851 124.905 272.038 123.322 271.614C119.495 270.589 106.697 267.159 96.9869 263.285C90.0257 260.5 84.675 257.511 85.3467 255.004C86.9377 249.067 110.325 242.535 110.325 242.535L149.117 252.929C149.117 252.929 166.105 270.279 164.514 276.217Z" fill="url(#paint16_radial)"/>
<path d="M130.668 191.418L157.057 198.489C160.699 199.465 162.863 203.213 161.887 206.854C160.911 210.496 157.164 212.66 153.522 211.684L127.133 204.613C123.491 203.637 121.327 199.889 122.303 196.248C123.279 192.606 127.027 190.442 130.668 191.418Z" fill="url(#paint17_radial)"/>
<path d="M116.361 237.081L146.61 245.186C149.189 245.877 150.72 248.529 150.031 251.102C149.34 253.682 146.69 255.206 144.117 254.517L113.868 246.412C111.289 245.72 109.764 243.07 110.454 240.498C111.137 237.923 113.788 236.392 116.361 237.081Z" fill="url(#paint18_radial)"/>
<path opacity="0.2" d="M130.668 191.418L157.057 198.489C160.699 199.465 162.863 203.213 161.887 206.854C160.911 210.496 157.164 212.66 153.522 211.684L127.133 204.613C123.491 203.637 121.327 199.889 122.303 196.248C123.279 192.606 127.027 190.442 130.668 191.418Z" fill="url(#paint19_radial)"/>
<path opacity="0.3" d="M116.361 237.081L146.61 245.186C149.189 245.877 150.72 248.529 150.031 251.102C149.34 253.682 146.69 255.206 144.117 254.517L113.868 246.412C111.289 245.72 109.764 243.07 110.454 240.498C111.137 237.923 113.788 236.392 116.361 237.081Z" fill="url(#paint20_radial)"/>
<path opacity="0.9" d="M131.736 273.727L131.718 273.793C127.94 272.851 124.905 272.038 123.322 271.614C119.495 270.589 106.697 267.159 96.9869 263.285C117.121 258.073 118.506 247.626 118.506 247.626C119.546 246.915 120.321 246.132 120.881 245.363C123.507 241.895 121.197 238.377 121.197 238.377C129.875 232.641 131.685 205.833 131.685 205.833C135.345 202.938 135.669 195.636 135.669 195.636L144.199 197.922C138.017 202.862 140.327 208.148 140.327 208.148C131.88 218.825 131.915 241.39 131.915 241.39C129.234 243.217 128.333 245.522 128.203 247.325C127.995 248.896 128.372 250.128 128.372 250.128C119.721 262.093 131.736 273.727 131.736 273.727Z" fill="url(#paint21_linear)"/>
<path opacity="0.7" d="M144.683 244.67L118.294 237.599L118.284 237.582C115.896 230.529 121.52 209.543 127.114 204.629L127.133 204.613L153.522 211.684L153.532 211.701C155.92 218.754 150.296 239.74 144.702 244.654L144.683 244.67Z" fill="url(#paint22_radial)"/>
<path d="M255.389 69.2766C254.841 71.3217 254.227 73.3492 253.697 75.3284C253.017 77.3382 252.403 79.3657 251.74 81.3095L251.723 81.3755C250.795 84.3089 249.736 87.2069 248.628 90.0213C223.114 157.005 167.812 204.27 149.801 199.444L136.607 195.909C118.86 191.153 94.9714 124.084 105.337 54.5255C105.852 50.4917 106.565 46.5109 107.445 42.4336L107.463 42.3676C108.26 38.3385 109.171 34.4108 110.249 30.3864C110.797 28.3413 112.299 26.6932 114.474 25.4375C116.314 24.3751 118.581 23.5682 121.191 23.0654C122.471 22.7722 123.866 22.5803 125.345 22.3401C141.181 20.5024 166.417 24.2238 188.056 30.022C215.897 37.4818 247.166 50.8808 254.138 62.8605C255.478 64.9871 255.955 67.1654 255.389 69.2766Z" fill="url(#paint23_radial)"/>
<path d="M240.973 80.3265L240.849 80.7883C224.954 139.319 170.253 173.522 152.044 168.643L139.839 165.373C121.631 160.494 91.2933 103.505 106.793 44.868L106.917 44.4062C108.826 37.2811 137.634 33.4748 183.815 45.8489C191.798 47.9879 200.048 50.9763 207.809 54.47C207.941 54.5054 208.055 54.6067 208.187 54.6421C227.577 65.1407 242.882 73.2015 240.973 80.3265Z" fill="url(#paint24_radial)"/>
<path opacity="0.7" d="M242.721 73.8018L242.598 74.2636C226.702 132.794 172.001 166.997 153.792 162.118L141.587 158.848C123.379 153.969 93.0416 96.9801 108.541 38.3433L108.665 37.8815C110.574 30.7564 139.383 26.9501 185.564 39.3242C193.546 41.4632 201.796 44.4515 209.558 47.9453C229.145 58.497 244.648 66.6108 242.721 73.8018Z" fill="url(#paint25_radial)"/>
<path opacity="0.7" d="M251.74 81.3095C250.813 84.2429 249.736 87.207 248.628 90.0214L239.062 87.4582C224.254 83.3488 197.552 76.1235 183.764 72.429L170.57 68.8935C153.087 64.209 113.984 56.5597 105.337 54.5255C105.852 50.4917 106.565 46.511 107.445 42.4336C114.014 35.0721 152.327 37.4894 183.796 45.9215C215.463 54.4066 250.146 71.6901 251.74 81.3095Z" fill="url(#paint26_radial)"/>
<path opacity="0.7" d="M255.323 69.2589C254.686 71.6339 252.34 80.1267 251.655 82.4181C252.724 78.8508 238.417 60.6278 182.485 45.6409C134.299 32.7294 108.032 38.9493 107.382 42.961C107.382 42.961 109.547 32.7437 110.183 30.3687C113.718 17.1742 155.07 21.1833 188.056 30.022C221.042 38.8607 258.858 56.0643 255.323 69.2589Z" fill="url(#paint27_radial)"/>
<path opacity="0.7" d="M255.323 69.2589L253.697 75.3284C253.017 77.3382 252.403 79.3657 251.74 81.3095C250.014 71.6547 214.209 54.0707 183.796 45.9214C153.712 37.8606 114.361 35.0945 107.463 42.3676C108.26 38.3385 109.171 34.4108 110.249 30.3864C110.797 28.3413 112.299 26.6932 114.474 25.4375C116.314 24.375 118.581 23.5682 121.191 23.0654C122.471 22.7722 123.866 22.5803 125.345 22.3401C141.181 20.5024 166.417 24.2238 188.056 30.022C215.897 37.4818 247.166 50.8808 254.138 62.8605C255.394 65.0354 255.871 67.2137 255.323 69.2589Z" fill="url(#paint28_radial)"/>
<path opacity="0.6" d="M188.122 30.0397C155.136 21.201 113.784 17.1919 110.249 30.3864C89.0362 109.554 116.82 190.586 136.612 195.889L149.807 199.424C169.598 204.727 234.176 148.444 255.389 69.2766C258.924 56.082 221.109 38.8784 188.122 30.0397Z" fill="url(#paint29_radial)"/>
<path opacity="0.2" d="M186.354 36.637C153.368 27.7983 113.784 17.1919 110.249 30.3864C89.0362 109.554 116.82 190.586 136.612 195.889L149.807 199.424C169.598 204.727 234.176 148.444 255.389 69.2766C258.924 56.082 219.341 45.4756 186.354 36.637Z" fill="url(#paint30_radial)"/>
<defs>
<linearGradient id="paint0_linear" x1="112.738" y1="311.034" x2="134.891" y2="228.357" gradientUnits="userSpaceOnUse">
<stop stop-color="#B65000"/>
<stop offset="0.342" stop-color="#A44200"/>
<stop offset="0.974" stop-color="#782100"/>
</linearGradient>
<linearGradient id="paint1_linear" x1="128.084" y1="251.281" x2="104.618" y2="346.695" gradientUnits="userSpaceOnUse">
<stop stop-color="#B65000"/>
<stop offset="0.277" stop-color="#983900"/>
<stop offset="0.549" stop-color="#812700"/>
<stop offset="0.719" stop-color="#782100"/>
</linearGradient>
<linearGradient id="paint2_linear" x1="120.124" y1="282.255" x2="133.772" y2="242.008" gradientUnits="userSpaceOnUse">
<stop stop-color="#B65000"/>
<stop offset="0.342" stop-color="#A44200"/>
<stop offset="0.974" stop-color="#782100"/>
</linearGradient>
<linearGradient id="paint3_linear" x1="123.147" y1="269.757" x2="95.0981" y2="383.833" gradientUnits="userSpaceOnUse">
<stop stop-color="#B65000"/>
<stop offset="0.277" stop-color="#983900"/>
<stop offset="0.549" stop-color="#812700"/>
<stop offset="0.719" stop-color="#782100"/>
</linearGradient>
<linearGradient id="paint4_linear" x1="78.0748" y1="33.9274" x2="91.2383" y2="139.467" gradientUnits="userSpaceOnUse">
<stop stop-color="#F2AC32"/>
<stop offset="1" stop-color="#DE9104"/>
</linearGradient>
<radialGradient id="paint5_radial" cx="0" cy="0" r="1" gradientUnits="userSpaceOnUse" gradientTransform="translate(90.2565 89.5713) rotate(82.8337) scale(53.691 27.9856)">
<stop stop-color="#E37900"/>
<stop offset="0.875" stop-color="#E37900" stop-opacity="0.125"/>
<stop offset="1" stop-color="#E37900" stop-opacity="0"/>
</radialGradient>
<radialGradient id="paint6_radial" cx="0" cy="0" r="1" gradientUnits="userSpaceOnUse" gradientTransform="translate(133.546 129.592) rotate(127.649) scale(53.7055 37.6628)">
<stop stop-color="#E37900"/>
<stop offset="1" stop-color="#E37900" stop-opacity="0"/>
</radialGradient>
<radialGradient id="paint7_radial" cx="0" cy="0" r="1" gradientUnits="userSpaceOnUse" gradientTransform="translate(76.2922 35.5785) rotate(57.7104) scale(20.3058 51.8861)">
<stop stop-color="#FFEEB3"/>
<stop offset="1" stop-color="#FFEEB3" stop-opacity="0"/>
</radialGradient>
<linearGradient id="paint8_linear" x1="281.35" y1="88.3948" x2="217.18" y2="173.213" gradientUnits="userSpaceOnUse">
<stop stop-color="#F2AC32"/>
<stop offset="1" stop-color="#DE9104"/>
</linearGradient>
<radialGradient id="paint9_radial" cx="0" cy="0" r="1" gradientUnits="userSpaceOnUse" gradientTransform="translate(242.979 130.493) rotate(127.166) scale(53.6911 27.9856)">
<stop stop-color="#E37900"/>
<stop offset="0.875" stop-color="#E37900" stop-opacity="0.125"/>
<stop offset="1" stop-color="#E37900" stop-opacity="0"/>
</radialGradient>
<radialGradient id="paint10_radial" cx="0" cy="0" r="1" gradientUnits="userSpaceOnUse" gradientTransform="translate(185.479 143.514) rotate(82.3506) scale(53.6987 37.658)">
<stop stop-color="#E37900"/>
<stop offset="1" stop-color="#E37900" stop-opacity="0"/>
</radialGradient>
<radialGradient id="paint11_radial" cx="0" cy="0" r="1" gradientUnits="userSpaceOnUse" gradientTransform="translate(284.069 89.4495) rotate(128.766) scale(15.4563 39.4948)">
<stop stop-color="#FFEEB3"/>
<stop offset="1" stop-color="#FFEEB3" stop-opacity="0"/>
</radialGradient>
<radialGradient id="paint12_radial" cx="0" cy="0" r="1" gradientUnits="userSpaceOnUse" gradientTransform="translate(128.413 236.563) rotate(105.476) scale(46.2202 39.7355)">
<stop stop-color="#FEDD30"/>
<stop offset="0.126" stop-color="#FACB27"/>
<stop offset="0.378" stop-color="#EF9B10"/>
<stop offset="0.392" stop-color="#EE980F"/>
<stop offset="0.474" stop-color="#DF8808"/>
<stop offset="0.588" stop-color="#CE7500"/>
</radialGradient>
<radialGradient id="paint13_radial" cx="0" cy="0" r="1" gradientUnits="userSpaceOnUse" gradientTransform="translate(128.497 232.612) rotate(105.476) scale(51.7117 44.4566)">
<stop stop-color="#FEDD30"/>
<stop offset="0.126" stop-color="#FACB27"/>
<stop offset="0.378" stop-color="#EF9B10"/>
<stop offset="0.392" stop-color="#EE980F"/>
<stop offset="0.474" stop-color="#DF8808"/>
<stop offset="0.588" stop-color="#CE7500"/>
</radialGradient>
<linearGradient id="paint14_linear" x1="48.8651" y1="241.213" x2="162.512" y2="274.266" gradientUnits="userSpaceOnUse">
<stop offset="0.153" stop-color="#F1B133"/>
<stop offset="0.301" stop-color="#E19925"/>
<stop offset="0.447" stop-color="#D7881B"/>
<stop offset="0.557" stop-color="#D38218"/>
<stop offset="0.974" stop-color="#BA6000"/>
</linearGradient>
<radialGradient id="paint15_radial" cx="0" cy="0" r="1" gradientUnits="userSpaceOnUse" gradientTransform="translate(105.875 262.384) rotate(104.009) scale(30.1354 81.1387)">
<stop stop-color="#FEDD30"/>
<stop offset="0.183" stop-color="#FACB27"/>
<stop offset="0.552" stop-color="#EF9B10"/>
<stop offset="0.573" stop-color="#EE980F"/>
<stop offset="0.627" stop-color="#DF8808"/>
<stop offset="0.702" stop-color="#CE7500"/>
</radialGradient>
<radialGradient id="paint16_radial" cx="0" cy="0" r="1" gradientUnits="userSpaceOnUse" gradientTransform="translate(115.429 258.96) rotate(18.3251) scale(20.0389 16.1868)">
<stop stop-color="#FFEEB3"/>
<stop offset="1" stop-color="#FFEEB3" stop-opacity="0"/>
</radialGradient>
<radialGradient id="paint17_radial" cx="0" cy="0" r="1" gradientUnits="userSpaceOnUse" gradientTransform="translate(136.482 198.688) rotate(15.5328) scale(64.3209 18.1642)">
<stop stop-color="#FEDD30"/>
<stop offset="0.123" stop-color="#FACB27"/>
<stop offset="0.371" stop-color="#EF9B10"/>
<stop offset="0.385" stop-color="#EE980F"/>
<stop offset="0.496" stop-color="#DF8808"/>
<stop offset="0.649" stop-color="#CE7500"/>
</radialGradient>
<radialGradient id="paint18_radial" cx="0" cy="0" r="1" gradientUnits="userSpaceOnUse" gradientTransform="translate(121.69 244.519) rotate(105.672) scale(13.7612 160.908)">
<stop stop-color="#FEDD30"/>
<stop offset="0.08" stop-color="#FACB27"/>
<stop offset="0.242" stop-color="#EF9B10"/>
<stop offset="0.251" stop-color="#EE980F"/>
<stop offset="0.383" stop-color="#DF8808"/>
<stop offset="0.565" stop-color="#CE7500"/>
</radialGradient>
<radialGradient id="paint19_radial" cx="0" cy="0" r="1" gradientUnits="userSpaceOnUse" gradientTransform="translate(138.659 198.199) rotate(107.832) scale(18.9878 7.5833)">
<stop stop-color="#FFEEB3"/>
<stop offset="1" stop-color="#FFEEB3" stop-opacity="0"/>
</radialGradient>
<radialGradient id="paint20_radial" cx="0" cy="0" r="1" gradientUnits="userSpaceOnUse" gradientTransform="translate(124.764 245.196) rotate(17.3518) scale(16.3984 9.38532)">
<stop stop-color="#FFEEB3"/>
<stop offset="1" stop-color="#FFEEB3" stop-opacity="0"/>
</radialGradient>
<linearGradient id="paint21_linear" x1="9.28186" y1="660.667" x2="184.199" y2="7.8676" gradientUnits="userSpaceOnUse">
<stop stop-color="#FFEEB3" stop-opacity="0.5"/>
<stop offset="1" stop-color="#FFEEB3" stop-opacity="0"/>
</linearGradient>
<radialGradient id="paint22_radial" cx="0" cy="0" r="1" gradientUnits="userSpaceOnUse" gradientTransform="translate(130.807 226.389) rotate(18.3251) scale(16.4805 36.7151)">
<stop stop-color="#FFEEB3" stop-opacity="0.5"/>
<stop offset="1" stop-color="#FFEEB3" stop-opacity="0"/>
</radialGradient>
<radialGradient id="paint23_radial" cx="0" cy="0" r="1" gradientUnits="userSpaceOnUse" gradientTransform="translate(142.747 84.7672) rotate(110.365) scale(124.235 109.498)">
<stop stop-color="#FEDD30"/>
<stop offset="0.264" stop-color="#FACB27"/>
<stop offset="0.793" stop-color="#EF9B10"/>
<stop offset="0.823" stop-color="#EE980F"/>
<stop offset="0.886" stop-color="#DF8808"/>
<stop offset="0.974" stop-color="#CE7500"/>
</radialGradient>
<radialGradient id="paint24_radial" cx="0" cy="0" r="1" gradientUnits="userSpaceOnUse" gradientTransform="translate(158.319 76.1104) rotate(96.848) scale(82.6775 56.8351)">
<stop stop-color="#FFDE6E"/>
<stop offset="1" stop-color="#FFDE6C" stop-opacity="0"/>
</radialGradient>
<radialGradient id="paint25_radial" cx="0" cy="0" r="1" gradientUnits="userSpaceOnUse" gradientTransform="translate(149.022 73.7234) rotate(97.386) scale(43.2483 40.395)">
<stop stop-color="#FFEEB3"/>
<stop offset="1" stop-color="#FFEEB3" stop-opacity="0"/>
</radialGradient>
<radialGradient id="paint26_radial" cx="0" cy="0" r="1" gradientUnits="userSpaceOnUse" gradientTransform="translate(161.519 132.675) rotate(15.0688) scale(131.976 88.754)">
<stop stop-color="#CE7500" stop-opacity="0"/>
<stop offset="0.777" stop-color="#CE7500" stop-opacity="0"/>
<stop offset="0.91" stop-color="#CE7500" stop-opacity="0"/>
<stop offset="1" stop-color="#CE7500" stop-opacity="0.7"/>
</radialGradient>
<radialGradient id="paint27_radial" cx="0" cy="0" r="1" gradientUnits="userSpaceOnUse" gradientTransform="translate(151.953 29.1918) rotate(2.38543) scale(54.4987 17.3003)">
<stop stop-color="#FFEEB3"/>
<stop offset="1" stop-color="#FFEEB3" stop-opacity="0"/>
</radialGradient>
<radialGradient id="paint28_radial" cx="0" cy="0" r="1" gradientUnits="userSpaceOnUse" gradientTransform="translate(234.556 31.9626) rotate(52.5689) scale(50.4792 37.8693)">
<stop stop-color="#FFEEB3"/>
<stop offset="1" stop-color="#FFEEB3" stop-opacity="0"/>
</radialGradient>
<radialGradient id="paint29_radial" cx="0" cy="0" r="1" gradientUnits="userSpaceOnUse" gradientTransform="translate(151.193 73.2881) rotate(-76.7133) scale(218.174 129.931)">
<stop stop-color="#D58619" stop-opacity="0"/>
<stop offset="0.323" stop-color="#D58619" stop-opacity="0"/>
<stop offset="0.491" stop-color="#D98107" stop-opacity="0.68"/>
<stop offset="0.495" stop-color="#D98106" stop-opacity="0.7"/>
<stop offset="0.681" stop-color="#D58618" stop-opacity="0.02"/>
<stop offset="0.686" stop-color="#D58619" stop-opacity="0"/>
<stop offset="1" stop-color="#D58619" stop-opacity="0"/>
</radialGradient>
<radialGradient id="paint30_radial" cx="0" cy="0" r="1" gradientUnits="userSpaceOnUse" gradientTransform="translate(169.504 76.2703) rotate(-76.0772) scale(252.929 124.618)">
<stop stop-color="#FFEEB3" stop-opacity="0.043"/>
<stop offset="0.173" stop-color="#FFEEB3" stop-opacity="0.043"/>
<stop offset="0.25" stop-color="#FFEEB3" stop-opacity="0.043"/>
<stop offset="0.391" stop-color="#FFEEB3" stop-opacity="0.043"/>
<stop offset="0.495" stop-color="#FFEEB3" stop-opacity="0.7"/>
<stop offset="0.6" stop-color="#FFEEB3" stop-opacity="0"/>
<stop offset="0.795" stop-color="#FFEEB3" stop-opacity="0"/>
<stop offset="0.859" stop-color="#FFEEB3" stop-opacity="0"/>
<stop offset="1" stop-color="#FFEEB3" stop-opacity="0"/>
</radialGradient>
</defs>
</svg>
