<svg width="29" height="29" viewBox="0 0 29 29" fill="none" xmlns="http://www.w3.org/2000/svg">
<path d="M27.1875 21.1458C27.1875 22.475 26.1 23.5625 24.7708 23.5625H4.22917C2.9 23.5625 1.8125 22.475 1.8125 21.1458V7.85417C1.8125 6.525 2.9 5.4375 4.22917 5.4375H24.7708C26.1 5.4375 27.1875 6.525 27.1875 7.85417V21.1458Z" fill="#E1E7EA"/>
<path d="M27.1875 21.1458C27.1875 22.475 26.1 23.5625 24.7708 23.5625H9.66666C9.66666 23.5625 23.925 21.2667 27.1875 14.5V21.1458ZM13.2917 14.5C13.2917 15.5271 14.0771 16.3125 15.1042 16.3125C16.1312 16.3125 16.9167 15.5271 16.9167 14.5C16.9167 13.4729 16.1312 12.6875 15.1042 12.6875C14.0771 12.6875 13.2917 13.4729 13.2917 14.5Z" fill="#FF6D00"/>
<path d="M6.76667 12.6876H7.43125V16.3126H6.76667V12.6876ZM10.3917 14.5001C10.3917 15.5272 11.1771 16.3126 12.2042 16.3126C12.5063 16.3126 12.7479 16.2522 13.05 16.1314V15.3459C12.8083 15.5876 12.5667 15.7084 12.2042 15.7084C11.5396 15.7084 11.0562 15.2251 11.0562 14.5001C11.0562 13.8355 11.5396 13.2918 12.2042 13.2918C12.5063 13.2918 12.7479 13.4126 13.05 13.6543V12.8689C12.7479 12.748 12.5063 12.6272 12.2042 12.6272C11.1771 12.6876 10.3917 13.5334 10.3917 14.5001ZM18.4875 15.0439L17.5208 12.6876H16.7958L18.3062 16.3126H18.6687L20.1792 12.6876H19.4542L18.4875 15.0439ZM20.4813 16.3126H22.4146V15.7084H21.1458V14.7418H22.3542V14.1376H21.1458V13.2918H22.4146V12.6876H20.4813V16.3126ZM25.0729 13.7751C25.0729 13.1105 24.65 12.6876 23.8646 12.6876H22.8375V16.3126H23.5021V14.8626H23.5625L24.5292 16.3126H25.375L24.2875 14.8022C24.7708 14.6814 25.0729 14.3189 25.0729 13.7751ZM23.6833 14.3793H23.5021V13.2918H23.6833C24.1063 13.2918 24.3479 13.473 24.3479 13.8355C24.3479 14.1376 24.1667 14.3793 23.6833 14.3793ZM4.65208 12.6876H3.625V16.3126H4.59167C6.10208 16.3126 6.46458 15.0439 6.46458 14.5001C6.525 13.4126 5.73958 12.6876 4.65208 12.6876ZM4.47083 15.7084H4.28958V13.2918H4.53125C5.4375 13.2918 5.8 13.8959 5.8 14.5001C5.8 14.7418 5.73958 15.7084 4.47083 15.7084ZM9.24375 14.0772C8.82083 13.8959 8.7 13.8355 8.7 13.6543C8.7 13.4126 8.94167 13.2918 9.18333 13.2918C9.36458 13.2918 9.54583 13.3522 9.72708 13.5939L10.0896 13.1105C9.7875 12.8084 9.48542 12.6876 9.0625 12.6876C8.45833 12.6876 7.975 13.1105 7.975 13.7147C7.975 14.198 8.21667 14.4397 8.82083 14.6814C9.18333 14.8022 9.48542 14.923 9.48542 15.2251C9.48542 15.5272 9.24375 15.7084 8.94167 15.7084C8.63958 15.7084 8.3375 15.5272 8.21667 15.2251L7.79375 15.648C8.09583 16.1314 8.45833 16.3126 9.00208 16.3126C9.72708 16.3126 10.2104 15.8293 10.2104 15.1647C10.2104 14.6209 9.96875 14.3793 9.24375 14.0772Z" fill="black"/>
</svg>
