<svg width="118" height="39" viewBox="0 0 118 39" fill="none" xmlns="http://www.w3.org/2000/svg">
<rect x="0.5" y="0.5" width="117" height="38" fill="#121212" stroke="#2E2E2E"/>
<mask id="mask0" mask-type="alpha" maskUnits="userSpaceOnUse" x="1" y="1" width="116" height="37">
<rect x="1.5" y="1.5" width="115" height="36" fill="#030303" stroke="#5C2121"/>
</mask>
<g mask="url(#mask0)">
</g>
<g opacity="0.1">
<path d="M48.1999 10.4468V13.2808H45.7999C44.4739 13.2808 43.3999 14.1263 43.3999 15.1702V18.0042V18.2994C43.3999 18.6971 43.5605 19.0852 43.8569 19.4083L43.8757 19.4305C44.5909 20.2079 44.8062 21.2033 44.4546 22.1224L43.503 24.6151L43.5054 24.6188C43.4366 24.7698 43.401 24.9289 43.3999 25.0893C43.4003 25.3572 43.4972 25.6195 43.6793 25.8459C43.8614 26.0722 44.1213 26.2532 44.4288 26.368L46.7257 27.2721C46.7296 27.2739 46.7335 27.2758 46.7374 27.2776L46.7632 27.2868C47.0211 27.3941 47.3082 27.4505 47.5999 27.451C47.9864 27.4509 48.3625 27.3529 48.6728 27.1715C48.983 26.9901 49.2108 26.7349 49.3226 26.4436L51.1202 21.7829H52.9999C53.6623 21.7829 54.1999 21.3597 54.1999 20.8383H56.5999L61.3999 18.9489V18.0042H67.3999V21.7829C67.3977 21.9081 67.427 22.0324 67.4863 22.1486C67.5456 22.2647 67.6337 22.3705 67.7453 22.4596C67.857 22.5488 67.99 22.6196 68.1367 22.6679C68.2834 22.7162 68.4409 22.7411 68.5999 22.7411C68.7589 22.7411 68.9164 22.7162 69.0631 22.6679C69.2098 22.6196 69.3428 22.5488 69.4545 22.4596C69.5661 22.3705 69.6542 22.2647 69.7135 22.1486C69.7728 22.0324 69.8021 21.9081 69.7999 21.7829V18.0042H70.9999C71.6623 18.0042 72.1999 17.581 72.1999 17.0595H74.5999V14.2255H72.1999V13.2808V11.3915H69.7999V13.2808H52.9999V10.4468H48.1999ZM61.8757 20.8733L57.1437 22.7276C57.9104 23.9897 59.6268 26.4431 62.853 29.5876C62.9377 29.7005 63.0418 29.8036 63.1624 29.8939C63.4961 30.1442 63.939 30.2842 64.3999 30.2851C64.8551 30.2844 65.2931 30.1479 65.6257 29.9031C65.6531 29.8829 65.6796 29.862 65.7054 29.8404C65.8449 29.7349 66.8257 28.9923 66.8257 28.9658C66.8257 28.9658 66.8257 28.9604 66.8257 28.9603C67.0067 28.8278 67.1511 28.6673 67.2499 28.4889C67.3487 28.3105 67.3998 28.118 67.3999 27.9234C67.3995 27.7145 67.3405 27.5082 67.2271 27.3194C67.1136 27.1306 66.9485 26.9638 66.7437 26.8311C66.4629 26.617 63.786 24.5224 61.8757 20.8733Z" fill="white"/>
</g>
</svg>
