<svg width="16" height="16" viewBox="0 0 16 16" fill="none" xmlns="http://www.w3.org/2000/svg">
<path d="M14 0.666702H2C1.263 0.666702 0.666992 1.2633 0.666992 2V14C0.666992 14.737 1.263 15.333 2 15.333H14C14.737 15.333 15.333 14.737 15.333 14V2C15.333 1.2633 14.737 0.666702 14 0.666702ZM5.30301 12.667H3.336V6.3387H5.30301V12.667ZM4.29901 5.434C3.66501 5.434 3.15302 4.92 3.15302 4.2873C3.15302 3.6547 3.66601 3.1413 4.29901 3.1413C4.93101 3.1413 5.44501 3.6553 5.44501 4.2873C5.44501 4.92 4.93101 5.434 4.29901 5.434ZM12.669 12.667H10.704V9.5893C10.704 8.8553 10.691 7.9113 9.68201 7.9113C8.65901 7.9113 8.50101 8.7107 8.50101 9.536V12.667H6.53601V6.3387H8.423V7.2033H8.44901C8.71201 6.706 9.353 6.1813 10.31 6.1813C12.301 6.1813 12.669 7.492 12.669 9.196V12.667Z" fill="#AAAAAA"/>
</svg>
