<svg width="70" height="25" viewBox="0 0 70 25" fill="none" xmlns="http://www.w3.org/2000/svg">
<path d="M22.457 6.36911H14.4277L10.3575 25H3.93459L8.00486 6.36911H0L1.35676 0.153557H23.8138L22.457 6.36911Z" fill="#CC3737"/>
<path d="M43.1587 18.7871C42.9649 19.8084 42.6667 20.8085 42.2687 21.7726C41.8229 22.749 41.0608 23.5581 40.0979 24.0775C38.9455 24.6925 37.3708 25 35.3736 25H25.7515C23.6784 25 22.2077 24.6689 21.3394 24.0066C20.6284 23.4617 20.2729 22.6356 20.2729 21.5282C20.2775 21.0806 20.3202 20.634 20.4005 20.1931C20.433 19.9916 20.5325 19.523 20.699 18.7871L22.7422 9.46506H29.1597L27.1164 18.7871H36.7412L37.4169 15.678H30.9805L32.3562 9.46506H38.7764C40.8495 9.46506 42.3202 9.7962 43.1885 10.4585C43.8995 11.0034 44.255 11.8295 44.255 12.9368C44.2515 13.3844 44.2097 13.831 44.1301 14.2719C44.0949 14.4743 43.9972 14.9421 43.8289 15.678L43.1587 18.7871ZM45.8722 6.36911H23.4206C23.6121 5.34758 23.9094 4.34735 24.3079 3.38354C24.7536 2.40642 25.5156 1.59642 26.4787 1.07604C27.6329 0.461052 29.2085 0.153557 31.2057 0.153557H40.8305C42.9 0.153557 44.3698 0.485581 45.24 1.14962C45.9509 1.69102 46.3064 2.51625 46.3064 3.62533C46.3016 4.07287 46.2599 4.51934 46.1815 4.96043C46.1454 5.16192 46.0441 5.63148 45.8776 6.36911H45.8722Z" fill="#CC3737"/>
<path d="M66.5762 18.7871C66.3837 19.8087 66.0855 20.8089 65.6862 21.7726C65.2413 22.7495 64.479 23.5589 63.5154 24.0775C62.3631 24.6925 60.7883 25 58.7912 25H49.1609C47.0914 25 45.6216 24.6689 44.7515 24.0066C44.0405 23.4617 43.6851 22.6356 43.6851 21.5282C43.6886 21.0806 43.7303 20.6341 43.8099 20.1931C43.8452 19.9908 43.9428 19.523 44.1111 18.7871L46.1761 9.47557H52.5799L50.5367 18.7871H60.1615L60.829 15.678H67.2465L66.5762 18.7871ZM68.6195 9.46506H62.2021L62.8804 6.36911H46.8382C47.0303 5.34743 47.3285 4.34717 47.7282 3.38354C48.1738 2.40642 48.9358 1.59642 49.899 1.07604C51.0531 0.461052 52.6279 0.153557 54.6232 0.153557H64.248C66.3212 0.153557 67.7919 0.485581 68.6602 1.14962C69.3711 1.69102 69.7257 2.51625 69.7239 3.62533C69.7205 4.07294 69.6788 4.51951 69.5991 4.96043C69.5665 5.16192 69.4661 5.63148 69.2979 6.36911L68.6195 9.46506Z" fill="#CC3737"/>
</svg>
