<svg width="29" height="29" viewBox="0 0 29 29" fill="none" xmlns="http://www.w3.org/2000/svg">
<path d="M27.1875 21.1458C27.1875 22.4804 26.1054 23.5625 24.7708 23.5625H4.22917C2.89456 23.5625 1.8125 22.4804 1.8125 21.1458V7.85417C1.8125 6.51956 2.89456 5.4375 4.22917 5.4375H24.7708C26.1054 5.4375 27.1875 6.51956 27.1875 7.85417V21.1458Z" fill="#3F51B5"/>
<path d="M18.125 8.45825C16.5226 8.45825 14.9859 9.09478 13.8529 10.2278C12.7199 11.3608 12.0833 12.8976 12.0833 14.4999C12.0833 16.1023 12.7199 17.639 13.8529 18.772C14.9859 19.9051 16.5226 20.5416 18.125 20.5416C19.7273 20.5416 21.2641 19.9051 22.3971 18.772C23.5301 17.639 24.1667 16.1023 24.1667 14.4999C24.1667 12.8976 23.5301 11.3608 22.3971 10.2278C21.2641 9.09478 19.7273 8.45825 18.125 8.45825Z" fill="#FFC107"/>
<path d="M13.3001 18.1249C13.0198 17.7521 12.7787 17.3492 12.5896 16.9166H15.8068C15.9748 16.5323 16.1065 16.1288 16.1917 15.7083H12.2054C12.1256 15.318 12.0833 14.9144 12.0833 14.4999H16.3125C16.3125 14.0855 16.2702 13.6819 16.1911 13.2916H12.2048C12.2906 12.8711 12.4217 12.4675 12.5896 12.0833H15.8068C15.6177 11.6507 15.3773 11.2477 15.0963 10.8749H13.3001C13.5642 10.5245 13.862 10.197 14.1949 9.91127C13.1388 9.00744 11.7698 8.45825 10.2708 8.45825C6.93403 8.45825 4.22917 11.1631 4.22917 14.4999C4.22917 17.8367 6.93403 20.5416 10.2708 20.5416C12.2459 20.5416 13.9937 19.59 15.0957 18.1249H13.3001Z" fill="#FF3D00"/>
</svg>
