<svg width="18" height="14" viewBox="0 0 18 14" fill="none" xmlns="http://www.w3.org/2000/svg">
<path opacity="0.3" d="M2.33301 0.333008C1.41201 0.333008 0.666992 1.079 0.666992 2V12C0.666992 12.921 1.41201 13.667 2.33301 13.667H15.667C16.587 13.667 17.333 12.921 17.333 12V2C17.333 1.079 16.587 0.333008 15.667 0.333008H2.33301ZM7.33301 3.66699C7.94401 3.66699 8.51001 3.842 9.00201 4.129C9.49401 3.843 10.057 3.66699 10.667 3.66699C12.505 3.66699 14 5.162 14 7C14 8.838 12.505 10.333 10.667 10.333C10.057 10.333 9.49401 10.158 9.00201 9.871C8.51001 10.158 7.94401 10.333 7.33301 10.333C5.49201 10.333 4 8.841 4 7C4 5.159 5.49201 3.66699 7.33301 3.66699ZM10.667 5.33301C10.517 5.33301 10.376 5.35899 10.239 5.39499C10.504 5.87399 10.667 6.415 10.667 7C10.667 7.585 10.504 8.12701 10.239 8.60501C10.376 8.64201 10.517 8.66699 10.667 8.66699C11.586 8.66699 12.333 7.919 12.333 7C12.333 6.081 11.586 5.33301 10.667 5.33301Z" fill="white"/>
</svg>
