<svg width="88" height="23" viewBox="0 0 88 23" fill="none" xmlns="http://www.w3.org/2000/svg">
<path d="M32.7949 4.70386H27.9414C27.7808 4.70376 27.6253 4.76002 27.5031 4.8625C27.381 4.96499 27.3001 5.10695 27.275 5.26283L25.3121 17.4856C25.303 17.5423 25.3066 17.6003 25.3226 17.6555C25.3386 17.7107 25.3666 17.7619 25.4046 17.8055C25.4426 17.849 25.4899 17.884 25.543 17.908C25.5961 17.9319 25.6539 17.9443 25.7123 17.9442H28.0294C28.1902 17.9443 28.3457 17.8879 28.4679 17.7853C28.5901 17.6827 28.6709 17.5405 28.6958 17.3845L29.2252 14.0879C29.2501 13.932 29.3308 13.7899 29.4529 13.6873C29.5749 13.5847 29.7302 13.5283 29.8909 13.5282H31.4274C34.6245 13.5282 36.4696 12.0088 36.9515 8.99789C37.1687 7.68061 36.9607 6.64561 36.3327 5.92077C35.6428 5.12483 34.4194 4.70386 32.7949 4.70386ZM33.3548 9.16795C33.0894 10.8783 31.7588 10.8783 30.4721 10.8783H29.7397L30.2536 7.6841C30.2686 7.59065 30.3171 7.50554 30.3903 7.44408C30.4636 7.38263 30.5568 7.34886 30.6531 7.34886H30.9888C31.8652 7.34886 32.692 7.34886 33.1192 7.83952C33.374 8.13225 33.4521 8.56716 33.3548 9.16795ZM47.3028 9.11289H44.9787C44.8823 9.11289 44.7891 9.14666 44.7159 9.20811C44.6427 9.26957 44.5941 9.35468 44.5791 9.44813L44.4762 10.0866L44.3137 9.85516C43.8105 9.13798 42.6885 8.89822 41.5687 8.89822C39.0003 8.89822 36.8067 10.8086 36.3795 13.4885C36.1574 14.8253 36.4732 16.1035 37.2453 16.9949C37.9536 17.8146 38.967 18.1561 40.1727 18.1561C42.2421 18.1561 43.3897 16.8492 43.3897 16.8492L43.2861 17.4835C43.2768 17.5402 43.2802 17.5982 43.296 17.6535C43.3118 17.7088 43.3396 17.7601 43.3775 17.8038C43.4154 17.8475 43.4625 17.8826 43.5156 17.9068C43.5687 17.9309 43.6264 17.9434 43.6849 17.9435H45.7785C45.9392 17.9436 46.0948 17.8872 46.2169 17.7846C46.3391 17.682 46.42 17.5398 46.4448 17.3838L47.701 9.57149C47.7102 9.51491 47.7068 9.45704 47.6911 9.40186C47.6753 9.34669 47.6476 9.29553 47.6097 9.25192C47.5719 9.20832 47.5248 9.1733 47.4718 9.1493C47.4189 9.12529 47.3612 9.11287 47.3028 9.11289ZM44.0632 13.5554C43.8389 14.8594 42.785 15.7348 41.4409 15.7348C40.766 15.7348 40.2267 15.5222 39.8803 15.1194C39.5368 14.7193 39.4063 14.1499 39.5156 13.5156C39.7249 12.2228 40.7965 11.3188 42.1201 11.3188C42.7801 11.3188 43.3166 11.5342 43.67 11.9405C44.0241 12.351 44.1647 12.9239 44.0632 13.5554ZM59.681 9.11289H57.3455C57.2353 9.11306 57.1269 9.13962 57.0296 9.19027C56.9322 9.24091 56.849 9.31412 56.787 9.40352L53.5657 14.0635L52.2003 9.58543C52.1584 9.44885 52.0728 9.32916 51.9563 9.24405C51.8397 9.15895 51.6983 9.11296 51.5531 9.11289H49.258C49.1936 9.11272 49.1301 9.12767 49.0727 9.15648C49.0153 9.1853 48.9658 9.22715 48.9283 9.27856C48.8907 9.32997 48.8662 9.38944 48.8568 9.45203C48.8473 9.51462 48.8533 9.57852 48.8741 9.6384L51.4466 17.0528L49.0281 20.4059C48.9851 20.4653 48.9596 20.5353 48.9544 20.608C48.9492 20.6807 48.9644 20.7535 48.9985 20.8182C49.0326 20.883 49.0842 20.9373 49.1476 20.9752C49.211 21.0132 49.2838 21.0332 49.3581 21.0332H51.6908C51.7997 21.0333 51.907 21.0075 52.0036 20.958C52.1001 20.9085 52.1829 20.8367 52.245 20.7488L60.0132 9.73668C60.0553 9.6771 60.08 9.60734 60.0846 9.53496C60.0892 9.46258 60.0735 9.39034 60.0393 9.32607C60.0051 9.26181 59.9536 9.20797 59.8905 9.17039C59.8273 9.13281 59.7549 9.11292 59.681 9.11289Z" fill="#253B80"/>
<path d="M67.4137 4.70382H62.5595C62.399 4.70389 62.2437 4.76022 62.1217 4.86269C61.9996 4.96516 61.9189 5.10704 61.8938 5.26279L59.9309 17.4856C59.9217 17.5422 59.9252 17.6001 59.9411 17.6552C59.9569 17.7104 59.9847 17.7616 60.0227 17.8051C60.0606 17.8487 60.1076 17.8837 60.1607 17.9077C60.2137 17.9317 60.2713 17.9442 60.3297 17.9442H62.8207C62.9331 17.944 63.0417 17.9045 63.127 17.8327C63.2124 17.7608 63.2688 17.6615 63.2862 17.5525L63.8433 14.0878C63.8682 13.9319 63.9489 13.7899 64.071 13.6873C64.193 13.5847 64.3483 13.5282 64.509 13.5282H66.0447C69.2426 13.5282 71.087 12.0088 71.5696 8.99785C71.7875 7.68058 71.5781 6.64558 70.95 5.92073C70.2609 5.12479 69.0382 4.70382 67.4137 4.70382ZM67.9736 9.16791C67.7089 10.8783 66.3783 10.8783 65.0909 10.8783H64.3593L64.8738 7.68406C64.8885 7.59061 64.9369 7.50543 65.01 7.44394C65.0832 7.38245 65.1763 7.34871 65.2726 7.34882H65.6083C66.484 7.34882 67.3115 7.34882 67.7387 7.83949C67.9935 8.13222 68.0709 8.56713 67.9736 9.16791ZM81.9209 9.11285H79.5982C79.5018 9.11259 79.4086 9.14628 79.3354 9.2078C79.2622 9.26932 79.2139 9.35458 79.1993 9.4481L79.0964 10.0865L78.9332 9.85513C78.43 9.13794 77.3087 8.89819 76.1889 8.89819C73.6206 8.89819 71.4276 10.8086 71.0004 13.4884C70.779 14.8252 71.0934 16.1035 71.8655 16.9949C72.5752 17.8145 73.5872 18.156 74.7929 18.156C76.8624 18.156 78.0099 16.8492 78.0099 16.8492L77.9063 17.4835C77.897 17.5403 77.9005 17.5984 77.9163 17.6538C77.9322 17.7092 77.9601 17.7605 77.9982 17.8043C78.0363 17.848 78.0836 17.8831 78.1368 17.9072C78.19 17.9312 78.248 17.9436 78.3065 17.9435H80.3994C80.56 17.9434 80.7154 17.8869 80.8374 17.7843C80.9595 17.6817 81.0402 17.5397 81.0651 17.3838L82.3219 9.57146C82.3308 9.5147 82.3271 9.45672 82.311 9.4015C82.295 9.34628 82.2669 9.29513 82.2288 9.25156C82.1908 9.20799 82.1435 9.17304 82.0904 9.14909C82.0372 9.12515 81.9794 9.11279 81.9209 9.11285ZM78.6813 13.5553C78.4584 14.8594 77.4031 15.7348 76.059 15.7348C75.3855 15.7348 74.8447 15.5222 74.4984 15.1193C74.1549 14.7193 74.0258 14.1499 74.1336 13.5156C74.3444 12.2227 75.4146 11.3188 76.7382 11.3188C77.3982 11.3188 77.9347 11.5341 78.2881 11.9405C78.6436 12.351 78.7842 12.9239 78.6813 13.5553ZM84.661 5.03906L82.6689 17.4856C82.6598 17.5422 82.6633 17.6001 82.6791 17.6552C82.695 17.7104 82.7228 17.7616 82.7607 17.8051C82.7986 17.8487 82.8457 17.8837 82.8987 17.9077C82.9517 17.9317 83.0094 17.9442 83.0678 17.9442H85.0705C85.4033 17.9442 85.6858 17.7072 85.7369 17.3845L87.7013 5.16243C87.7104 5.10577 87.7069 5.04785 87.6911 4.99265C87.6752 4.93744 87.6474 4.88625 87.6095 4.84261C87.5716 4.79897 87.5245 4.7639 87.4715 4.73983C87.4185 4.71575 87.3608 4.70323 87.3024 4.70312H85.0598C84.9636 4.70346 84.8705 4.73745 84.7975 4.79901C84.7244 4.86056 84.676 4.94566 84.661 5.03906Z" fill="#179BD7"/>
<path d="M5.15651 20.3194L5.52767 18.0041L4.7009 17.9852H0.75296L3.49657 0.900414C3.50474 0.848212 3.53174 0.800631 3.57264 0.766344C3.61355 0.732057 3.66564 0.713348 3.71941 0.713626H10.3762C12.5861 0.713626 14.1112 1.16526 14.9075 2.05669C15.2808 2.47487 15.5185 2.91187 15.6335 3.39278C15.7541 3.89738 15.7563 4.50026 15.6384 5.23557L15.6299 5.28923V5.76038L16.0032 5.96808C16.2882 6.10987 16.5443 6.30168 16.759 6.53402C17.0784 6.89157 17.2849 7.34599 17.3722 7.88475C17.4623 8.43884 17.4325 9.09817 17.2849 9.84463C17.1146 10.7033 16.8392 11.4511 16.4673 12.0631C16.1392 12.6113 15.6981 13.0861 15.1722 13.457C14.6783 13.8013 14.0913 14.0627 13.4278 14.23C12.7848 14.3944 12.0517 14.4774 11.2477 14.4774H10.7296C10.3592 14.4774 9.99935 14.6084 9.7169 14.8433C9.43484 15.0807 9.24774 15.4087 9.1889 15.7689L9.14986 15.9773L8.49412 20.058L8.46432 20.2079C8.45651 20.2553 8.44303 20.279 8.42315 20.295C8.40391 20.3105 8.37989 20.319 8.35503 20.3194H5.15651Z" fill="#253B80"/>
<path d="M16.3567 5.34375C16.3368 5.46851 16.3141 5.59605 16.2886 5.72708C15.4107 10.1535 12.4073 11.6827 8.57153 11.6827H6.6185C6.14941 11.6827 5.75411 12.0172 5.68102 12.4717L4.68108 18.6998L4.39792 20.4652C4.38664 20.5352 4.39095 20.6068 4.41054 20.6751C4.43014 20.7433 4.46456 20.8066 4.51144 20.8605C4.55831 20.9144 4.61653 20.9577 4.68208 20.9874C4.74763 21.0171 4.81896 21.0325 4.89115 21.0325H8.35508C8.76528 21.0325 9.11373 20.7398 9.17831 20.3425L9.21237 20.1697L9.86457 16.105L9.90644 15.8819C9.97031 15.4833 10.3195 15.1905 10.7297 15.1905H11.2477C14.6038 15.1905 17.231 13.8524 17.9989 9.97999C18.3197 8.36233 18.1536 7.0116 17.3048 6.06163C17.0358 5.76776 16.7145 5.52449 16.3567 5.34375Z" fill="#179BD7"/>
<path d="M15.4384 4.98402C15.1581 4.90438 14.8729 4.84223 14.5846 4.79793C14.015 4.71195 13.4393 4.6707 12.8629 4.67456H7.64539C7.44682 4.67441 7.25476 4.74403 7.1039 4.87084C6.95305 4.99764 6.85337 5.17326 6.82287 5.36596L5.71294 12.2701L5.681 12.4716C5.71558 12.2518 5.82911 12.0514 6.00107 11.9067C6.17302 11.762 6.39203 11.6825 6.61848 11.6826H8.57152C12.4073 11.6826 15.4107 10.1527 16.2885 5.72699C16.3148 5.59596 16.3368 5.46841 16.3567 5.34366C16.125 5.22435 15.8836 5.12434 15.6349 5.04466C15.5697 5.02341 15.5042 5.0032 15.4384 4.98402Z" fill="#222D65"/>
<path d="M6.82287 5.36597C6.8531 5.17322 6.95273 4.99752 7.10366 4.87078C7.25459 4.74404 7.4468 4.67467 7.64538 4.67527H12.8629C13.4811 4.67527 14.058 4.715 14.5846 4.79864C14.9409 4.85364 15.2924 4.9359 15.6356 5.04467C15.8947 5.129 16.1353 5.22867 16.3574 5.34367C16.6185 3.70788 16.3553 2.59412 15.4547 1.58561C14.4618 0.475333 12.6699 0 10.3769 0H3.72016C3.25177 0 2.85222 0.334545 2.77983 0.789667L0.00712425 18.0501C-0.00579057 18.1303 -0.000876919 18.2122 0.0215272 18.2903C0.0439313 18.3684 0.0832942 18.4408 0.136908 18.5025C0.190522 18.5642 0.257115 18.6138 0.332105 18.6479C0.407096 18.6819 0.488705 18.6996 0.571318 18.6997H4.68106L5.71293 12.2702L6.82287 5.36597Z" fill="#253B80"/>
</svg>
