<svg width="34" height="14" viewBox="0 0 34 14" fill="none" xmlns="http://www.w3.org/2000/svg">
<path d="M11.333 3C11.333 3 11.667 10.667 6.06702 13.667C0.333021 10.667 0.667028 3 0.667028 3C3.33303 3 6.00002 0.333008 6.00002 0.333008C6.00002 0.333008 8.33301 3 11.333 3Z" fill="#43A047"/>
<path d="M7.93301 5L5.30002 7.633L4.03302 6.367L3.33301 7.10001L5.30002 9.06699L8.66702 5.733L7.93301 5Z" fill="#DCEDC8"/>
<path d="M14.176 4.755C14.179 5.599 14.855 6.073 15.989 6.073C17.114 6.073 17.838 5.52299 17.838 4.65799C17.838 3.97299 17.454 3.583 16.634 3.44L16.054 3.34C15.652 3.27 15.479 3.16401 15.479 2.96201C15.479 2.75101 15.685 2.616 16.01 2.616C16.344 2.616 16.604 2.772 16.613 3.035H17.747C17.741 2.215 17.111 1.69901 15.986 1.69901C14.979 1.69901 14.246 2.23799 14.246 3.09399C14.246 3.75599 14.668 4.201 15.444 4.336L16.004 4.436C16.458 4.518 16.613 4.60301 16.613 4.79901C16.613 5.00401 16.385 5.15302 16.013 5.15302C15.679 5.15302 15.386 4.995 15.351 4.755H14.176ZM18.189 4.755C18.192 5.599 18.869 6.073 20.003 6.073C21.128 6.073 21.852 5.52299 21.852 4.65799C21.852 3.97299 21.468 3.583 20.647 3.44L20.067 3.34C19.666 3.27 19.493 3.16401 19.493 2.96201C19.493 2.75101 19.698 2.616 20.023 2.616C20.357 2.616 20.618 2.772 20.627 3.035H21.761C21.755 2.215 21.125 1.69901 20 1.69901C18.992 1.69901 18.26 2.23799 18.26 3.09399C18.26 3.75599 18.682 4.201 19.458 4.336L20.018 4.436C20.472 4.518 20.627 4.60301 20.627 4.79901C20.627 5.00401 20.398 5.15302 20.026 5.15302C19.692 5.15302 19.399 4.995 19.364 4.755H18.189ZM25.221 5.013H23.562V1.77301H22.32V6H25.221V5.013Z" fill="white"/>
<path d="M14.193 10.796C14.22 11.59 14.867 12.073 15.884 12.073C16.933 12.073 17.598 11.555 17.598 10.734C17.598 10.09 17.229 9.72701 16.382 9.54501L15.869 9.43701C15.383 9.32501 15.178 9.179 15.178 8.918C15.178 8.605 15.471 8.397 15.907 8.397C16.35 8.397 16.663 8.61301 16.692 8.97101H17.521C17.507 8.20601 16.889 7.69901 15.904 7.69901C14.961 7.69901 14.287 8.21499 14.287 8.99399C14.287 9.61199 14.671 10.008 15.45 10.175L16.001 10.295C16.511 10.409 16.713 10.562 16.713 10.837C16.713 11.148 16.391 11.373 15.919 11.373C15.45 11.373 15.087 11.145 15.046 10.796H14.193ZM19.479 9.42499C19.859 9.42499 20.12 9.69999 20.138 10.102H18.805C18.834 9.70899 19.104 9.42499 19.479 9.42499ZM20.149 11.039C20.07 11.279 19.83 11.435 19.517 11.435C19.08 11.435 18.796 11.127 18.796 10.679V10.626H20.961V10.365C20.961 9.40999 20.384 8.79199 19.47 8.79199C18.541 8.79199 17.955 9.442 17.955 10.444C17.955 11.449 18.535 12.067 19.502 12.067C20.278 12.067 20.841 11.654 20.935 11.039H20.149ZM24.257 10.028C24.219 9.31602 23.68 8.79199 22.83 8.79199C21.89 8.79199 21.289 9.419 21.289 10.427C21.289 11.452 21.89 12.067 22.836 12.067C23.662 12.067 24.216 11.59 24.26 10.849H23.463C23.41 11.191 23.188 11.397 22.845 11.397C22.42 11.397 22.156 11.045 22.156 10.427C22.156 9.82 22.42 9.46301 22.842 9.46301C23.193 9.46301 23.413 9.69702 23.463 10.028H24.257ZM27.573 8.85901H26.718V10.658C26.718 11.074 26.48 11.347 26.1 11.347C25.722 11.347 25.514 11.124 25.514 10.705V8.85901H24.658V10.884C24.658 11.616 25.109 12.059 25.789 12.059C26.264 12.059 26.574 11.83 26.729 11.435H26.747V12H27.573V8.85901ZM28.13 12H28.985V10.245C28.985 9.803 29.231 9.54501 29.653 9.54501C29.776 9.54501 29.894 9.566 29.964 9.595V8.84201C29.905 8.82401 29.82 8.81 29.721 8.81C29.352 8.81 29.085 9.02599 28.974 9.42499H28.956V8.85901H28.13V12ZM31.619 9.42499C32 9.42499 32.261 9.69999 32.278 10.102H30.945C30.975 9.70899 31.244 9.42499 31.619 9.42499ZM32.29 11.039C32.211 11.279 31.971 11.435 31.657 11.435C31.221 11.435 30.937 11.127 30.937 10.679V10.626H33.102V10.365C33.102 9.40999 32.524 8.79199 31.61 8.79199C30.682 8.79199 30.096 9.442 30.096 10.444C30.096 11.449 30.676 12.067 31.643 12.067C32.419 12.067 32.981 11.654 33.075 11.039H32.29Z" fill="#43A047"/>
</svg>
