<svg width="16" height="13" viewBox="0 0 16 13" fill="none" xmlns="http://www.w3.org/2000/svg">
<path d="M15.5 2.1788C14.949 2.4229 14.356 2.5858 13.73 2.6629C14.366 2.2854 14.855 1.6833 15.085 0.972099C14.49 1.3208 13.831 1.5771 13.13 1.7121C12.57 1.1183 11.771 0.75 10.886 0.75C9.186 0.75 7.808 2.1158 7.808 3.8C7.808 4.0383 7.836 4.2704 7.888 4.4958C5.331 4.3675 3.062 3.1517 1.545 1.3067C1.278 1.7575 1.12801 2.2854 1.12801 2.8425C1.12801 3.9013 1.66999 4.8333 2.49699 5.3825C1.99199 5.3671 1.517 5.2267 1.10201 5.0017C1.10201 5.0108 1.10201 5.0246 1.10201 5.0375C1.10201 6.5171 2.16301 7.7492 3.57001 8.0296C3.31201 8.1 3.041 8.1392 2.761 8.1392C2.562 8.1392 2.368 8.1167 2.181 8.0829C2.572 9.2921 3.70899 10.1758 5.05499 10.2021C4.00199 11.019 2.67499 11.508 1.23199 11.508C0.982995 11.508 0.739993 11.494 0.498993 11.465C1.86199 12.328 3.48 12.833 5.217 12.833C10.877 12.833 13.974 8.185 13.974 4.1525C13.974 4.0204 13.97 3.8888 13.964 3.7588C14.568 3.3321 15.089 2.7938 15.5 2.1788Z" fill="#AAAAAA"/>
</svg>
