<svg width="73" height="73" viewBox="0 0 73 73" fill="none" xmlns="http://www.w3.org/2000/svg">
<path d="M66.9168 36.5C66.9168 53.2976 53.2978 66.9167 36.5002 66.9167C19.7026 66.9167 6.0835 53.2976 6.0835 36.5C6.0835 19.7024 19.7026 6.08337 36.5002 6.08337C53.2978 6.08337 66.9168 19.7024 66.9168 36.5Z" fill="url(#paint0_linear)"/>
<path d="M36.5002 6.08337C19.7026 6.08337 6.0835 19.7024 6.0835 36.5H36.5002V6.08337Z" fill="url(#paint1_linear)"/>
<path d="M31.9373 33.4583C32.7773 33.4583 33.4582 32.7774 33.4582 31.9375C33.4582 31.0975 32.7773 30.4166 31.9373 30.4166C31.0974 30.4166 30.4165 31.0975 30.4165 31.9375C30.4165 32.7774 31.0974 33.4583 31.9373 33.4583Z" fill="#99F0FF"/>
<path d="M25.8543 33.4583C26.6943 33.4583 27.3752 32.7774 27.3752 31.9375C27.3752 31.0975 26.6943 30.4166 25.8543 30.4166C25.0144 30.4166 24.3335 31.0975 24.3335 31.9375C24.3335 32.7774 25.0144 33.4583 25.8543 33.4583Z" fill="#99F0FF"/>
<path d="M19.7708 33.4583C20.6108 33.4583 21.2917 32.7774 21.2917 31.9375C21.2917 31.0975 20.6108 30.4166 19.7708 30.4166C18.9309 30.4166 18.25 31.0975 18.25 31.9375C18.25 32.7774 18.9309 33.4583 19.7708 33.4583Z" fill="#99F0FF"/>
<path d="M13.6873 33.4583C14.5273 33.4583 15.2082 32.7774 15.2082 31.9375C15.2082 31.0975 14.5273 30.4166 13.6873 30.4166C12.8474 30.4166 12.1665 31.0975 12.1665 31.9375C12.1665 32.7774 12.8474 33.4583 13.6873 33.4583Z" fill="#99F0FF"/>
<path d="M28.8958 27.375C29.7358 27.375 30.4167 26.6941 30.4167 25.8542C30.4167 25.0143 29.7358 24.3334 28.8958 24.3334C28.0559 24.3334 27.375 25.0143 27.375 25.8542C27.375 26.6941 28.0559 27.375 28.8958 27.375Z" fill="#99F0FF"/>
<path d="M22.8123 27.375C23.6523 27.375 24.3332 26.6941 24.3332 25.8542C24.3332 25.0143 23.6523 24.3334 22.8123 24.3334C21.9724 24.3334 21.2915 25.0143 21.2915 25.8542C21.2915 26.6941 21.9724 27.375 22.8123 27.375Z" fill="#99F0FF"/>
<path d="M16.7293 27.375C17.5693 27.375 18.2502 26.6941 18.2502 25.8542C18.2502 25.0143 17.5693 24.3334 16.7293 24.3334C15.8894 24.3334 15.2085 25.0143 15.2085 25.8542C15.2085 26.6941 15.8894 27.375 16.7293 27.375Z" fill="#99F0FF"/>
<path d="M10.6458 27.375C11.4858 27.375 12.1667 26.6941 12.1667 25.8542C12.1667 25.0143 11.4858 24.3334 10.6458 24.3334C9.8059 24.3334 9.125 25.0143 9.125 25.8542C9.125 26.6941 9.8059 27.375 10.6458 27.375Z" fill="#99F0FF"/>
<path d="M31.9373 21.2917C32.7773 21.2917 33.4582 20.6108 33.4582 19.7708C33.4582 18.9309 32.7773 18.25 31.9373 18.25C31.0974 18.25 30.4165 18.9309 30.4165 19.7708C30.4165 20.6108 31.0974 21.2917 31.9373 21.2917Z" fill="#99F0FF"/>
<path d="M25.8543 21.2917C26.6943 21.2917 27.3752 20.6108 27.3752 19.7708C27.3752 18.9309 26.6943 18.25 25.8543 18.25C25.0144 18.25 24.3335 18.9309 24.3335 19.7708C24.3335 20.6108 25.0144 21.2917 25.8543 21.2917Z" fill="#99F0FF"/>
<path d="M19.7708 21.2917C20.6108 21.2917 21.2917 20.6108 21.2917 19.7708C21.2917 18.9309 20.6108 18.25 19.7708 18.25C18.9309 18.25 18.25 18.9309 18.25 19.7708C18.25 20.6108 18.9309 21.2917 19.7708 21.2917Z" fill="#99F0FF"/>
<path d="M31.9373 9.12504C32.7773 9.12504 33.4582 8.44414 33.4582 7.60421C33.4582 6.76427 32.7773 6.08337 31.9373 6.08337C31.0974 6.08337 30.4165 6.76427 30.4165 7.60421C30.4165 8.44414 31.0974 9.12504 31.9373 9.12504Z" fill="#99F0FF"/>
<path d="M25.8541 9.12506C26.6936 9.12506 27.3749 8.44373 27.3749 7.60423C27.3749 7.56317 27.3551 7.52971 27.3521 7.48865C26.4305 7.77913 25.5271 8.10763 24.645 8.48175C24.9218 8.86196 25.3476 9.12506 25.8541 9.12506Z" fill="#99F0FF"/>
<path d="M13.6873 21.2917C14.5273 21.2917 15.2082 20.6108 15.2082 19.7708C15.2082 18.9309 14.5273 18.25 13.6873 18.25C12.8474 18.25 12.1665 18.9309 12.1665 19.7708C12.1665 20.6108 12.8474 21.2917 13.6873 21.2917Z" fill="#99F0FF"/>
<path d="M28.8958 15.2083C29.7358 15.2083 30.4167 14.5274 30.4167 13.6875C30.4167 12.8475 29.7358 12.1666 28.8958 12.1666C28.0559 12.1666 27.375 12.8475 27.375 13.6875C27.375 14.5274 28.0559 15.2083 28.8958 15.2083Z" fill="#99F0FF"/>
<path d="M22.8123 15.2083C23.6523 15.2083 24.3332 14.5274 24.3332 13.6875C24.3332 12.8475 23.6523 12.1666 22.8123 12.1666C21.9724 12.1666 21.2915 12.8475 21.2915 13.6875C21.2915 14.5274 21.9724 15.2083 22.8123 15.2083Z" fill="#99F0FF"/>
<path d="M16.7289 15.2084C17.5684 15.2084 18.2497 14.527 18.2497 13.6875C18.2497 13.2465 18.0551 12.8572 17.7555 12.5789C16.9707 13.1948 16.2179 13.8442 15.4985 14.5331C15.7723 14.9316 16.2088 15.2084 16.7289 15.2084Z" fill="#99F0FF"/>
<path d="M7.60414 33.4583C8.44364 33.4583 9.12498 32.777 9.12498 31.9375C9.12498 31.098 8.44364 30.4166 7.60414 30.4166C7.23154 30.4166 6.90152 30.5657 6.63689 30.7892C6.51523 31.4295 6.42094 32.0804 6.34033 32.7344C6.60952 33.1587 7.06273 33.4583 7.60414 33.4583Z" fill="#99F0FF"/>
<path d="M66.9168 36.5H36.5001V30.4167H66.3054C66.7054 32.3831 66.9168 34.4165 66.9168 36.5ZM18.3064 60.8334H54.6938C57.004 59.1027 59.0556 57.0571 60.7909 54.75H12.2094C13.9446 57.0571 15.9962 59.1027 18.3064 60.8334ZM36.5001 6.08337V12.1667H54.6938C49.6158 8.3631 43.3317 6.08337 36.5001 6.08337ZM60.7909 18.25H36.5001V24.3334H64.3679C63.4158 22.1555 62.2037 20.1252 60.7909 18.25ZM8.63237 48.6667H64.3694C65.215 46.7337 65.8765 44.7019 66.3069 42.5834H6.69482C7.12522 44.7019 7.78678 46.7337 8.63237 48.6667Z" fill="url(#paint2_linear)"/>
<defs>
<linearGradient id="paint0_linear" x1="15.7819" y1="15.7817" x2="58.6694" y2="58.6692" gradientUnits="userSpaceOnUse">
<stop stop-color="#DFE9F2"/>
<stop offset="0.998" stop-color="#9EA7B0"/>
</linearGradient>
<linearGradient id="paint1_linear" x1="14.8146" y1="14.8145" x2="57.6808" y2="57.6807" gradientUnits="userSpaceOnUse">
<stop stop-color="#0D61A9"/>
<stop offset="1" stop-color="#16528C"/>
</linearGradient>
<linearGradient id="paint2_linear" x1="14.7537" y1="14.9666" x2="58.8564" y2="59.0692" gradientUnits="userSpaceOnUse">
<stop stop-color="#DB3542"/>
<stop offset="0.996" stop-color="#BA0B1A"/>
</linearGradient>
</defs>
</svg>
