<svg width="29" height="29" viewBox="0 0 29 29" fill="none" xmlns="http://www.w3.org/2000/svg">
<path d="M27.1875 21.1458C27.1875 22.4804 26.1054 23.5625 24.7708 23.5625H4.22917C2.89456 23.5625 1.8125 22.4804 1.8125 21.1458V7.85417C1.8125 6.51956 2.89456 5.4375 4.22917 5.4375H24.7708C26.1054 5.4375 27.1875 6.51956 27.1875 7.85417V21.1458Z" fill="#1565C0"/>
<path d="M9.17487 11.4791L7.58833 16.211C7.58833 16.211 7.18535 14.2093 7.14547 13.958C6.24225 11.8972 4.90945 12.012 4.90945 12.012L6.48029 18.125V18.1237H8.39006L11.0309 11.4791H9.17487ZM10.6871 18.125H12.4217L13.4705 11.4791H11.7142L10.6871 18.125ZM22.9632 11.4791H21.138L18.2924 18.125H20.0154L20.3707 17.1758H22.5433L22.7281 18.125H24.3068L22.9632 11.4791ZM20.8516 15.9065L21.7959 13.3949L22.2901 15.9065H20.8516ZM15.9313 13.4161C15.9313 13.05 16.2321 12.7775 17.0949 12.7775C17.6556 12.7775 18.2978 13.1847 18.2978 13.1847L18.5793 11.7897C18.5793 11.7897 17.7589 11.4785 16.9535 11.4785C15.1295 11.4785 14.1889 12.3509 14.1889 13.4553C14.1889 15.4527 16.5928 15.179 16.5928 16.2049C16.5928 16.3807 16.4533 16.7873 15.4522 16.7873C14.448 16.7873 13.7853 16.4194 13.7853 16.4194L13.4862 17.7582C13.4862 17.7582 14.1284 18.1243 15.3694 18.1243C16.6134 18.1243 18.3389 17.1939 18.3389 15.8575C18.3389 14.2498 15.9313 14.1338 15.9313 13.4161Z" fill="white"/>
<path d="M7.37813 15.0708L6.79451 12.2023C6.79451 12.2023 6.53049 11.5806 5.84415 11.5806C5.15782 11.5806 3.16165 11.5806 3.16165 11.5806C3.16165 11.5806 6.58184 12.5907 7.37813 15.0708Z" fill="#FFC107"/>
</svg>
