<svg width="18" height="14" viewBox="0 0 18 14" fill="none" xmlns="http://www.w3.org/2000/svg">
<path opacity="0.3" d="M1.66702 0.333008C0.930023 0.333008 0.333008 0.929992 0.333008 1.66699V4.366H2.34802C2.89802 4.366 3.10802 4.88199 3.10802 4.88199L3.57602 7.25699C3.02202 5.47399 0.889008 4.60999 0.333008 4.41199V12.333C0.333008 13.07 0.930023 13.667 1.66702 13.667H16.333C17.07 13.667 17.667 13.07 17.667 12.333V1.66699C17.667 0.929992 17.07 0.333008 16.333 0.333008H1.66702ZM11.246 4.24701C11.89 4.24701 12.548 4.505 12.548 4.505L12.323 5.66199C12.323 5.66199 11.809 5.32401 11.359 5.32401C10.669 5.32401 10.427 5.55 10.427 5.853C10.427 6.447 12.355 6.543 12.355 7.875C12.355 8.982 10.973 9.75299 9.97801 9.75299C8.98201 9.75299 8.46701 9.44901 8.46701 9.44901L8.70801 8.34C8.70801 8.34 9.23901 8.64499 10.043 8.64499C10.846 8.64499 10.957 8.30699 10.957 8.16299C10.957 7.31299 9.03102 7.53901 9.03102 5.88501C9.03102 4.97101 9.78502 4.24701 11.246 4.24701ZM5.01402 4.353H6.50102L4.38701 9.58899H2.85501L1.74101 5.349C1.74101 5.349 2.91502 5.94401 3.63902 7.56601C3.67102 7.76401 3.74301 8.08099 3.74301 8.08099L5.01402 4.353ZM7.04901 4.353H8.45601L7.61601 9.58899H6.22702L7.04901 4.353ZM14.599 4.353H16.06L17.135 9.58899H15.871L15.721 8.84299H13.983L13.698 9.58899H12.318L14.599 4.353ZM15.124 5.86301L14.368 7.841H15.52L15.124 5.86301Z" fill="white"/>
</svg>
